  0
SECTION
  2
HEADER
  9
$ACADVER
  1
AC1014
  9
$ACADMAINTVER
 70
     9
  9
$DWGCODEPAGE
  3
ANSI_1252
  9
$INSBASE
 10
0.0
 20
0.0
 30
0.0
  9
$EXTMIN
 10
1.000000000000000E+20
 20
1.000000000000000E+20
 30
1.000000000000000E+20
  9
$EXTMAX
 10
-1.000000000000000E+20
 20
-1.000000000000000E+20
 30
-1.000000000000000E+20
  9
$LIMMIN
 10
0.0
 20
0.0
  9
$LIMMAX
 10
12.0
 20
9.0
  9
$ORTHOMODE
 70
     0
  9
$REGENMODE
 70
     1
  9
$FILLMODE
 70
     1
  9
$QTEXTMODE
 70
     0
  9
$MIRRTEXT
 70
     1
  9
$DRAGMODE
 70
     2
  9
$LTSCALE
 40
1.0
  9
$OSMODE
 70
    37
  9
$ATTMODE
 70
     1
  9
$TEXTSIZE
 40
0.2
  9
$TRACEWID
 40
0.05
  9
$TEXTSTYLE
  7
STANDARD
  9
$CLAYER
  8
0
  9
$CELTYPE
  6
BYLAYER
  9
$CECOLOR
 62
   256
  9
$CELTSCALE
 40
1.0
  9
$DELOBJ
 70
     1
  9
$DISPSILH
 70
     0
  9
$DIMSCALE
 40
1.0
  9
$DIMASZ
 40
0.18
  9
$DIMEXO
 40
0.0625
  9
$DIMDLI
 40
0.38
  9
$DIMRND
 40
0.0
  9
$DIMDLE
 40
0.0
  9
$DIMEXE
 40
0.18
  9
$DIMTP
 40
0.0
  9
$DIMTM
 40
0.0
  9
$DIMTXT
 40
0.18
  9
$DIMCEN
 40
0.09
  9
$DIMTSZ
 40
0.0
  9
$DIMTOL
 70
     0
  9
$DIMLIM
 70
     0
  9
$DIMTIH
 70
     1
  9
$DIMTOH
 70
     1
  9
$DIMSE1
 70
     0
  9
$DIMSE2
 70
     0
  9
$DIMTAD
 70
     0
  9
$DIMZIN
 70
     0
  9
$DIMBLK
  1

  9
$DIMASO
 70
     1
  9
$DIMSHO
 70
     1
  9
$DIMPOST
  1

  9
$DIMAPOST
  1

  9
$DIMALT
 70
     0
  9
$DIMALTD
 70
     2
  9
$DIMALTF
 40
25.4
  9
$DIMLFAC
 40
1.0
  9
$DIMTOFL
 70
     0
  9
$DIMTVP
 40
0.0
  9
$DIMTIX
 70
     0
  9
$DIMSOXD
 70
     0
  9
$DIMSAH
 70
     0
  9
$DIMBLK1
  1

  9
$DIMBLK2
  1

  9
$DIMSTYLE
  2
STANDARD
  9
$DIMCLRD
 70
     0
  9
$DIMCLRE
 70
     0
  9
$DIMCLRT
 70
     0
  9
$DIMTFAC
 40
1.0
  9
$DIMGAP
 40
0.09
  9
$DIMJUST
 70
     0
  9
$DIMSD1
 70
     0
  9
$DIMSD2
 70
     0
  9
$DIMTOLJ
 70
     1
  9
$DIMTZIN
 70
     0
  9
$DIMALTZ
 70
     0
  9
$DIMALTTZ
 70
     0
  9
$DIMFIT
 70
     3
  9
$DIMUPT
 70
     0
  9
$DIMUNIT
 70
     2
  9
$DIMDEC
 70
     4
  9
$DIMTDEC
 70
     4
  9
$DIMALTU
 70
     2
  9
$DIMALTTD
 70
     2
  9
$DIMTXSTY
  7
STANDARD
  9
$DIMAUNIT
 70
     0
  9
$LUNITS
 70
     2
  9
$LUPREC
 70
     4
  9
$SKETCHINC
 40
0.1
  9
$FILLETRAD
 40
0.5
  9
$AUNITS
 70
     0
  9
$AUPREC
 70
     0
  9
$MENU
  1
.
  9
$ELEVATION
 40
0.0
  9
$PELEVATION
 40
0.0
  9
$THICKNESS
 40
0.0
  9
$LIMCHECK
 70
     0
  9
$CHAMFERA
 40
0.0
  9
$CHAMFERB
 40
0.0
  9
$CHAMFERC
 40
0.0
  9
$CHAMFERD
 40
0.0
  9
$SKPOLY
 70
     0
  9
$TDCREATE
 40
2457268.488478565
  9
$TDUPDATE
 40
2457268.488478889
  9
$TDINDWG
 40
0.0000000116
  9
$TDUSRTIMER
 40
0.0000000116
  9
$USRTIMER
 70
     1
  9
$ANGBASE
 50
0.0
  9
$ANGDIR
 70
     0
  9
$PDMODE
 70
     0
  9
$PDSIZE
 40
0.0
  9
$PLINEWID
 40
0.0
  9
$COORDS
 70
     1
  9
$SPLFRAME
 70
     0
  9
$SPLINETYPE
 70
     6
  9
$SPLINESEGS
 70
     8
  9
$ATTDIA
 70
     0
  9
$ATTREQ
 70
     1
  9
$HANDLING
 70
     1
  9
$HANDSEED
  5
1D7
  9
$SURFTAB1
 70
     6
  9
$SURFTAB2
 70
     6
  9
$SURFTYPE
 70
     6
  9
$SURFU
 70
     6
  9
$SURFV
 70
     6
  9
$UCSNAME
  2

  9
$UCSORG
 10
0.0
 20
0.0
 30
0.0
  9
$UCSXDIR
 10
1.0
 20
0.0
 30
0.0
  9
$UCSYDIR
 10
0.0
 20
1.0
 30
0.0
  9
$PUCSNAME
  2

  9
$PUCSORG
 10
0.0
 20
0.0
 30
0.0
  9
$PUCSXDIR
 10
1.0
 20
0.0
 30
0.0
  9
$PUCSYDIR
 10
0.0
 20
1.0
 30
0.0
  9
$USERI1
 70
     0
  9
$USERI2
 70
     0
  9
$USERI3
 70
     0
  9
$USERI4
 70
     0
  9
$USERI5
 70
     0
  9
$USERR1
 40
0.0
  9
$USERR2
 40
0.0
  9
$USERR3
 40
0.0
  9
$USERR4
 40
0.0
  9
$USERR5
 40
0.0
  9
$WORLDVIEW
 70
     1
  9
$SHADEDGE
 70
     3
  9
$SHADEDIF
 70
    70
  9
$TILEMODE
 70
     1
  9
$MAXACTVP
 70
    64
  9
$PINSBASE
 10
0.0
 20
0.0
 30
0.0
  9
$PLIMCHECK
 70
     0
  9
$PEXTMIN
 10
1.000000000000000E+20
 20
1.000000000000000E+20
 30
1.000000000000000E+20
  9
$PEXTMAX
 10
-1.000000000000000E+20
 20
-1.000000000000000E+20
 30
-1.000000000000000E+20
  9
$PLIMMIN
 10
0.0
 20
0.0
  9
$PLIMMAX
 10
12.0
 20
9.0
  9
$UNITMODE
 70
     0
  9
$VISRETAIN
 70
     1
  9
$PLINEGEN
 70
     0
  9
$PSLTSCALE
 70
     1
  9
$TREEDEPTH
 70
  3020
  9
$PICKSTYLE
 70
     1
  9
$CMLSTYLE
  2
STANDARD
  9
$CMLJUST
 70
     0
  9
$CMLSCALE
 40
1.0
  9
$PROXYGRAPHICS
 70
     1
  9
$MEASUREMENT
 70
     1
  0
ENDSEC
  0
SECTION
  2
CLASSES
  0
CLASS
  1
ACDBDICTIONARYWDFLT
  2
AcDbDictionaryWithDefault
  3
ObjectDBX Classes
 90
        0
280
     0
281
     0
  0
CLASS
  1
VISUALSTYLE
  2
AcDbVisualStyle
  3
ObjectDBX Classes
 90
     4095
280
     0
281
     0
  0
CLASS
  1
MATERIAL
  2
AcDbMaterial
  3
ObjectDBX Classes
 90
     1153
280
     0
281
     0
  0
CLASS
  1
SCALE
  2
AcDbScale
  3
ObjectDBX Classes
 90
     1153
280
     0
281
     0
  0
CLASS
  1
SUN
  2
AcDbSun
  3
SCENEOE
 90
     1153
280
     0
281
     0
  0
CLASS
  1
DICTIONARYVAR
  2
AcDbDictionaryVar
  3
ObjectDBX Classes
 90
        0
280
     0
281
     0
  0
CLASS
  1
XRECORD
  2
AcDbXrecord
  3
ObjectDBX Classes
 90
        0
280
     0
281
     0
  0
CLASS
  1
LWPOLYLINE
  2
AcDbPolyline
  3
ObjectDBX Classes
 90
        0
280
     0
281
     1
  0
CLASS
  1
HATCH
  2
AcDbHatch
  3
ObjectDBX Classes
 90
        0
280
     0
281
     1
  0
CLASS
  1
ACDBPLACEHOLDER
  2
AcDbPlaceHolder
  3
ObjectDBX Classes
 90
        0
280
     0
281
     0
  0
CLASS
  1
LAYOUT
  2
AcDbLayout
  3
ObjectDBX Classes
 90
        0
280
     0
281
     0
  0
ENDSEC
  0
SECTION
  2
TABLES
  0
TABLE
  2
VPORT
  5
8
102
{ACAD_XDICTIONARY
360
1CD
102
}
330
0
100
AcDbSymbolTable
 70
     1
  0
VPORT
  5
29
330
8
100
AcDbSymbolTableRecord
100
AcDbViewportTableRecord
  2
*ACTIVE
 70
     0
 10
0.0
 20
0.0
 11
1.0
 21
1.0
 12
0.0
 22
0.0
 13
0.0
 23
0.0
 14
0.5
 24
0.5
 15
0.5
 25
0.5
 16
0.0
 26
0.0
 36
1.0
 17
0.0
 27
0.0
 37
-1000.0
 40
446.1217105263145
 41
2.146478873239436
 42
50.0
 43
358.4637217469901
 44
798.2863890796548
 50
0.0
 51
0.0
 71
     0
 72
   100
 73
     1
 74
     3
 75
     0
 76
     0
 77
     0
 78
     0
  0
ENDTAB
  0
TABLE
  2
LTYPE
  5
5
330
0
100
AcDbSymbolTable
 70
     1
  0
LTYPE
  5
14
330
5
100
AcDbSymbolTableRecord
100
AcDbLinetypeTableRecord
  2
BYBLOCK
 70
     0
  3

 72
    65
 73
     0
 40
0.0
  0
LTYPE
  5
15
330
5
100
AcDbSymbolTableRecord
100
AcDbLinetypeTableRecord
  2
BYLAYER
 70
     0
  3

 72
    65
 73
     0
 40
0.0
  0
LTYPE
  5
16
330
5
100
AcDbSymbolTableRecord
100
AcDbLinetypeTableRecord
  2
CONTINUOUS
 70
     0
  3
Solid line
 72
    65
 73
     0
 40
0.0
  0
ENDTAB
  0
TABLE
  2
LAYER
  5
2
330
0
100
AcDbSymbolTable
 70
     3
  0
LAYER
  5
10
330
2
100
AcDbSymbolTableRecord
100
AcDbLayerTableRecord
  2
0
 70
     0
 62
     7
  6
CONTINUOUS
  0
LAYER
  5
6A
330
2
100
AcDbSymbolTableRecord
100
AcDbLayerTableRecord
  2
PROFILEEDGES
 70
     0
 62
     7
  6
CONTINUOUS
  0
LAYER
  5
6B
330
2
100
AcDbSymbolTableRecord
100
AcDbLayerTableRecord
  2
SECTIONCUTEDGES
 70
     0
 62
     7
  6
CONTINUOUS
  0
ENDTAB
  0
TABLE
  2
STYLE
  5
3
330
0
100
AcDbSymbolTable
 70
     1
  0
STYLE
  5
11
330
3
100
AcDbSymbolTableRecord
100
AcDbTextStyleTableRecord
  2
STANDARD
 70
     0
 40
0.0
 41
1.0
 50
0.0
 71
     0
 42
0.2
  3
txt
  4

  0
ENDTAB
  0
TABLE
  2
VIEW
  5
6
330
0
100
AcDbSymbolTable
 70
     0
  0
ENDTAB
  0
TABLE
  2
UCS
  5
7
330
0
100
AcDbSymbolTable
 70
     0
  0
ENDTAB
  0
TABLE
  2
APPID
  5
9
330
0
100
AcDbSymbolTable
 70
     1
  0
APPID
  5
12
330
9
100
AcDbSymbolTableRecord
100
AcDbRegAppTableRecord
  2
ACAD
 70
     0
  0
ENDTAB
  0
TABLE
  2
DIMSTYLE
  5
A
330
0
100
AcDbSymbolTable
 70
     1
  0
DIMSTYLE
105
27
330
A
100
AcDbSymbolTableRecord
100
AcDbDimStyleTableRecord
  2
STANDARD
 70
     0
  3

  4

  5

  6

  7

 40
1.0
 41
0.18
 42
0.0625
 43
0.38
 44
0.18
 45
0.0
 46
0.0
 47
0.0
 48
0.0
140
0.18
141
0.09
142
0.0
143
25.4
144
1.0
145
0.0
146
1.0
147
0.09
 71
     0
 72
     0
 73
     1
 74
     1
 75
     0
 76
     0
 77
     0
 78
     0
170
     0
171
     2
172
     0
173
     0
174
     0
175
     0
176
     0
177
     0
178
     0
270
     2
271
     4
272
     4
273
     2
274
     2
340
11
275
     0
280
     0
281
     0
282
     0
283
     1
284
     0
285
     0
286
     0
287
     3
288
     0
  0
ENDTAB
  0
TABLE
  2
BLOCK_RECORD
  5
1
330
0
100
AcDbSymbolTable
 70
     1
  0
BLOCK_RECORD
  5
1F
330
1
100
AcDbSymbolTableRecord
100
AcDbBlockTableRecord
  2
*MODEL_SPACE
  0
BLOCK_RECORD
  5
1B
330
1
100
AcDbSymbolTableRecord
100
AcDbBlockTableRecord
  2
*PAPER_SPACE
  0
ENDTAB
  0
ENDSEC
  0
SECTION
  2
BLOCKS
  0
BLOCK
  5
20
330
1F
100
AcDbEntity
  8
0
100
AcDbBlockBegin
  2
*MODEL_SPACE
 70
     0
 10
0.0
 20
0.0
 30
0.0
  3
*MODEL_SPACE
  1

  0
ENDBLK
  5
21
330
1F
100
AcDbEntity
  8
0
100
AcDbBlockEnd
  0
BLOCK
  5
1C
330
1B
100
AcDbEntity
 67
     1
  8
0
100
AcDbBlockBegin
  2
*PAPER_SPACE
 70
     0
 10
0.0
 20
0.0
 30
0.0
  3
*PAPER_SPACE
  1

  0
ENDBLK
  5
1D
330
1B
100
AcDbEntity
 67
     1
  8
0
100
AcDbBlockEnd
  0
ENDSEC
  0
SECTION
  2
ENTITIES
  0
LINE
  5
6C
330
1F
100
AcDbEntity
  8
0
100
AcDbLine
 10
-136.9064967198171
 20
-211.9078124999994
 30
0.0
 11
94.45600328018294
 21
-211.9078124999994
 31
0.0
  0
LINE
  5
6D
330
1F
100
AcDbEntity
  8
0
100
AcDbLine
 10
-136.9064967198171
 20
-125.0078124999994
 30
0.0
 11
-136.9064967198171
 21
-211.9078124999994
 31
0.0
  0
LINE
  5
6E
330
1F
100
AcDbEntity
  8
0
100
AcDbLine
 10
94.45600328018294
 20
-125.0078124999992
 30
0.0
 11
-136.9064967198171
 21
-125.0078124999994
 31
0.0
  0
LINE
  5
6F
330
1F
100
AcDbEntity
  8
0
100
AcDbLine
 10
94.45600328018294
 20
-211.9078124999994
 30
0.0
 11
94.45600328018294
 21
-125.0078124999992
 31
0.0
  0
LINE
  5
70
330
1F
100
AcDbEntity
  8
0
100
AcDbLine
 10
-136.9064967198171
 20
-82.5578124999999
 30
0.0
 11
94.4560032801829
 21
-82.5578124999999
 31
0.0
  0
LINE
  5
71
330
1F
100
AcDbEntity
  8
0
100
AcDbLine
 10
94.4560032801829
 20
-82.5578124999999
 30
0.0
 11
94.4560032801829
 21
-125.0078124999998
 31
0.0
  0
LINE
  5
72
330
1F
100
AcDbEntity
  8
0
100
AcDbLine
 10
-136.9064967198171
 20
-125.0078124999999
 30
0.0
 11
-136.9064967198171
 21
-82.5578124999999
 31
0.0
  0
LINE
  5
73
330
1F
100
AcDbEntity
  8
0
100
AcDbLine
 10
94.4560032801829
 20
-125.0078124999998
 30
0.0
 11
-136.9064967198171
 21
-125.0078124999999
 31
0.0
  0
LINE
  5
74
330
1F
100
AcDbEntity
  8
0
100
AcDbLine
 10
-136.906496719817
 20
-82.5578124999999
 30
0.0
 11
94.45600328018298
 21
-82.55781249999978
 31
0.0
  0
LINE
  5
75
330
1F
100
AcDbEntity
  8
0
100
AcDbLine
 10
94.45600328018281
 20
211.9078124999994
 30
0.0
 11
-136.9064967198171
 21
211.9078124999993
 31
0.0
  0
LINE
  5
76
330
1F
100
AcDbEntity
  8
0
100
AcDbLine
 10
-136.9064967198171
 20
211.9078124999993
 30
0.0
 11
-136.906496719817
 21
-82.5578124999999
 31
0.0
  0
LINE
  5
77
330
1F
100
AcDbEntity
  8
0
100
AcDbLine
 10
94.45600328018298
 20
-82.55781249999978
 30
0.0
 11
94.45600328018281
 21
211.9078124999994
 31
0.0
  0
LINE
  5
78
330
1F
100
AcDbEntity
  8
0
100
AcDbLine
 10
132.8519895876625
 20
132.9635188720871
 30
0.0
 11
132.0347664686271
 21
134.0170765687826
 31
0.0
  0
LINE
  5
79
330
1F
100
AcDbEntity
  8
0
100
AcDbLine
 10
107.8677413863717
 20
140.2221139698183
 30
0.0
 11
106.6440480168131
 21
139.6925745625484
 31
0.0
  0
LINE
  5
7A
330
1F
100
AcDbEntity
  8
0
100
AcDbLine
 10
136.5295652381498
 20
124.4651429669729
 30
0.0
 11
136.2387027018676
 21
125.7663871529514
 31
0.0
  0
LINE
  5
7B
330
1F
100
AcDbEntity
  8
0
100
AcDbLine
 10
134.2801799461955
 20
130.713050971001
 30
0.0
 11
133.6014466684196
 21
131.860726266628
 31
0.0
  0
LINE
  5
7C
330
1F
100
AcDbEntity
  8
0
100
AcDbLine
 10
109.1222701310844
 20
140.6737721096104
 30
0.0
 11
107.8677413863717
 21
140.2221139698183
 31
0.0
  0
LINE
  5
7D
330
1F
100
AcDbEntity
  8
0
100
AcDbLine
 10
136.2387027018676
 20
125.7663871529514
 30
0.0
 11
135.8667083178879
 21
127.0468002210042
 31
0.0
  0
LINE
  5
7E
330
1F
100
AcDbEntity
  8
0
100
AcDbLine
 10
122.2397364292812
 20
140.6737721096106
 30
0.0
 11
120.9593233612285
 21
141.0457664935903
 31
0.0
  0
LINE
  5
7F
330
1F
100
AcDbEntity
  8
0
100
AcDbLine
 10
119.658079175251
 20
141.3366290298723
 30
0.0
 11
118.341139287669
 21
141.545211816908
 31
0.0
  0
LINE
  5
80
330
1F
100
AcDbEntity
  8
0
100
AcDbLine
 10
136.7381480251855
 20
123.1482030793913
 30
0.0
 11
136.5295652381498
 21
124.4651429669729
 31
0.0
  0
LINE
  5
81
330
1F
100
AcDbEntity
  8
0
100
AcDbLine
 10
133.6014466684196
 20
131.860726266628
 30
0.0
 11
132.8519895876625
 21
132.9635188720871
 31
0.0
  0
LINE
  5
82
330
1F
100
AcDbEntity
  8
0
100
AcDbLine
 10
134.8855107708259
 20
129.5250223352757
 30
0.0
 11
134.2801799461955
 21
130.713050971001
 31
0.0
  0
LINE
  5
83
330
1F
100
AcDbEntity
  8
0
100
AcDbLine
 10
110.4026831991377
 20
141.0457664935905
 30
0.0
 11
109.1222701310844
 21
140.6737721096104
 31
0.0
  0
LINE
  5
84
330
1F
100
AcDbEntity
  8
0
100
AcDbLine
 10
114.3483055018003
 20
141.6706916737296
 30
0.0
 11
113.0208672726972
 21
141.545211816908
 31
0.0
  0
LINE
  5
85
330
1F
100
AcDbEntity
  8
0
100
AcDbLine
 10
111.7039273851149
 20
141.3366290298723
 30
0.0
 11
110.4026831991377
 21
141.0457664935905
 31
0.0
  0
LINE
  5
86
330
1F
100
AcDbEntity
  8
0
100
AcDbLine
 10
130.2101776540886
 20
135.960066309333
 30
0.0
 11
129.21001277706
 21
136.84183026035
 31
0.0
  0
LINE
  5
87
330
1F
100
AcDbEntity
  8
0
100
AcDbLine
 10
135.4150501780958
 20
128.3013289657169
 30
0.0
 11
134.8855107708259
 21
129.5250223352757
 31
0.0
  0
LINE
  5
88
330
1F
100
AcDbEntity
  8
0
100
AcDbLine
 10
128.156455080365
 20
137.659053379385
 30
0.0
 11
127.0536624749053
 21
138.4085104601425
 31
0.0
  0
LINE
  5
89
330
1F
100
AcDbEntity
  8
0
100
AcDbLine
 10
136.8636278820069
 20
121.8207648502894
 30
0.0
 11
136.7381480251855
 21
123.1482030793913
 31
0.0
  0
LINE
  5
8A
330
1F
100
AcDbEntity
  8
0
100
AcDbLine
 10
129.21001277706
 20
136.84183026035
 30
0.0
 11
128.156455080365
 21
137.659053379385
 31
0.0
  0
LINE
  5
8B
330
1F
100
AcDbEntity
  8
0
100
AcDbLine
 10
132.0347664686271
 20
134.0170765687826
 30
0.0
 11
131.1530025176101
 21
135.0172414458113
 31
0.0
  0
LINE
  5
8C
330
1F
100
AcDbEntity
  8
0
100
AcDbLine
 10
136.9064967198171
 20
120.4566563128275
 30
0.0
 11
136.8636278820069
 21
121.8207648502894
 31
0.0
  0
LINE
  5
8D
330
1F
100
AcDbEntity
  8
0
100
AcDbLine
 10
135.8667083178879
 20
127.0468002210042
 30
0.0
 11
135.4150501780958
 21
128.3013289657169
 31
0.0
  0
LINE
  5
8E
330
1F
100
AcDbEntity
  8
0
100
AcDbLine
 10
131.1530025176101
 20
135.0172414458113
 30
0.0
 11
130.2101776540886
 21
135.960066309333
 31
0.0
  0
LINE
  5
8F
330
1F
100
AcDbEntity
  8
0
100
AcDbLine
 10
95.94695638227003
 20
128.3013289657167
 30
0.0
 11
95.49529824247819
 21
127.046800221004
 31
0.0
  0
LINE
  5
90
330
1F
100
AcDbEntity
  8
0
100
AcDbLine
 10
117.0137010585655
 20
141.6706916737297
 30
0.0
 11
115.681003280183
 21
141.7125733886685
 31
0.0
  0
LINE
  5
91
330
1F
100
AcDbEntity
  8
0
100
AcDbLine
 10
124.7179585435526
 20
139.6925745625485
 30
0.0
 11
123.4942651739945
 21
140.2221139698184
 31
0.0
  0
LINE
  5
92
330
1F
100
AcDbEntity
  8
0
100
AcDbLine
 10
115.681003280183
 20
141.7125733886685
 30
0.0
 11
114.3483055018003
 21
141.6706916737296
 31
0.0
  0
LINE
  5
93
330
1F
100
AcDbEntity
  8
0
100
AcDbLine
 10
113.0208672726972
 20
141.545211816908
 30
0.0
 11
111.7039273851149
 21
141.3366290298723
 31
0.0
  0
LINE
  5
94
330
1F
100
AcDbEntity
  8
0
100
AcDbLine
 10
99.32724009173873
 20
134.0170765687828
 30
0.0
 11
98.51001697270323
 21
132.9635188720872
 31
0.0
  0
LINE
  5
95
330
1F
100
AcDbEntity
  8
0
100
AcDbLine
 10
118.341139287669
 20
141.545211816908
 30
0.0
 11
117.0137010585655
 21
141.6706916737297
 31
0.0
  0
LINE
  5
96
330
1F
100
AcDbEntity
  8
0
100
AcDbLine
 10
105.4560193810877
 20
139.0872437379181
 30
0.0
 11
104.3083440854603
 21
138.4085104601423
 31
0.0
  0
LINE
  5
97
330
1F
100
AcDbEntity
  8
0
100
AcDbLine
 10
127.0536624749053
 20
138.4085104601425
 30
0.0
 11
125.9059871792785
 21
139.0872437379181
 31
0.0
  0
LINE
  5
98
330
1F
100
AcDbEntity
  8
0
100
AcDbLine
 10
104.3083440854603
 20
138.4085104601423
 30
0.0
 11
103.2055514800011
 21
137.659053379385
 31
0.0
  0
LINE
  5
99
330
1F
100
AcDbEntity
  8
0
100
AcDbLine
 10
98.51001697270323
 20
132.9635188720872
 30
0.0
 11
97.76055989194569
 21
131.8607262666277
 31
0.0
  0
LINE
  5
9A
330
1F
100
AcDbEntity
  8
0
100
AcDbLine
 10
95.49529824247819
 20
127.046800221004
 30
0.0
 11
95.12330385849815
 21
125.7663871529507
 31
0.0
  0
LINE
  5
9B
330
1F
100
AcDbEntity
  8
0
100
AcDbLine
 10
120.9593233612285
 20
141.0457664935903
 30
0.0
 11
119.658079175251
 21
141.3366290298723
 31
0.0
  0
LINE
  5
9C
330
1F
100
AcDbEntity
  8
0
100
AcDbLine
 10
97.76055989194569
 20
131.8607262666277
 30
0.0
 11
97.08182661417038
 21
130.7130509710013
 31
0.0
  0
LINE
  5
9D
330
1F
100
AcDbEntity
  8
0
100
AcDbLine
 10
101.1518289062778
 20
135.9600663093333
 30
0.0
 11
100.2090040427551
 21
135.0172414458107
 31
0.0
  0
LINE
  5
9E
330
1F
100
AcDbEntity
  8
0
100
AcDbLine
 10
103.2055514800011
 20
137.659053379385
 30
0.0
 11
102.1519937833056
 21
136.8418302603497
 31
0.0
  0
LINE
  5
9F
330
1F
100
AcDbEntity
  8
0
100
AcDbLine
 10
97.08182661417038
 20
130.7130509710013
 30
0.0
 11
96.47649578954025
 21
129.5250223352757
 31
0.0
  0
LINE
  5
A0
330
1F
100
AcDbEntity
  8
0
100
AcDbLine
 10
106.6440480168131
 20
139.6925745625484
 30
0.0
 11
105.4560193810877
 21
139.0872437379181
 31
0.0
  0
LINE
  5
A1
330
1F
100
AcDbEntity
  8
0
100
AcDbLine
 10
94.8324413222165
 20
124.4651429669743
 30
0.0
 11
94.62385853518057
 21
123.1482030793913
 31
0.0
  0
LINE
  5
A2
330
1F
100
AcDbEntity
  8
0
100
AcDbLine
 10
94.62385853518057
 20
123.1482030793913
 30
0.0
 11
94.49837867835882
 21
121.8207648502876
 31
0.0
  0
LINE
  5
A3
330
1F
100
AcDbEntity
  8
0
100
AcDbLine
 10
125.9059871792785
 20
139.0872437379181
 30
0.0
 11
124.7179585435526
 21
139.6925745625485
 31
0.0
  0
LINE
  5
A4
330
1F
100
AcDbEntity
  8
0
100
AcDbLine
 10
95.12330385849815
 20
125.7663871529507
 30
0.0
 11
94.8324413222165
 21
124.4651429669743
 31
0.0
  0
LINE
  5
A5
330
1F
100
AcDbEntity
  8
0
100
AcDbLine
 10
94.49837867835882
 20
121.8207648502876
 30
0.0
 11
94.45550984054852
 21
120.4566563128273
 31
0.0
  0
LINE
  5
A6
330
1F
100
AcDbEntity
  8
0
100
AcDbLine
 10
96.47649578954025
 20
129.5250223352757
 30
0.0
 11
95.94695638227003
 21
128.3013289657167
 31
0.0
  0
LINE
  5
A7
330
1F
100
AcDbEntity
  8
0
100
AcDbLine
 10
102.1519937833056
 20
136.8418302603497
 30
0.0
 11
101.1518289062778
 21
135.9600663093333
 31
0.0
  0
LINE
  5
A8
330
1F
100
AcDbEntity
  8
0
100
AcDbLine
 10
123.4942651739945
 20
140.2221139698184
 30
0.0
 11
122.2397364292812
 21
140.6737721096106
 31
0.0
  0
LINE
  5
A9
330
1F
100
AcDbEntity
  8
0
100
AcDbLine
 10
100.2090040427551
 20
135.0172414458107
 30
0.0
 11
99.32724009173873
 21
134.0170765687828
 31
0.0
  0
LINE
  5
AA
330
1F
100
AcDbEntity
  8
0
100
AcDbLine
 10
136.9060032801823
 20
-34.08693292809441
 30
0.0
 11
94.45600328018303
 21
-34.08693292809411
 31
0.0
  0
LINE
  5
AB
330
1F
100
AcDbEntity
  8
0
100
AcDbLine
 10
94.45600328018303
 20
-34.08693292809411
 30
0.0
 11
94.4560032801828
 21
119.4880670719051
 31
0.0
  0
LINE
  5
AC
330
1F
100
AcDbEntity
  8
0
100
AcDbLine
 10
136.9060032801833
 20
119.4880670719055
 30
0.0
 11
136.9060032801823
 21
-34.08693292809441
 31
0.0
  0
LINE
  5
AD
330
1F
100
AcDbEntity
  8
0
100
AcDbLine
 10
136.9060032801833
 20
119.4880670719055
 30
0.0
 11
136.9064967198171
 21
120.4566563128275
 31
0.0
  0
LINE
  5
AE
330
1F
100
AcDbEntity
  8
0
100
AcDbLine
 10
94.4560032801828
 20
119.4880670719051
 30
0.0
 11
94.45550984054852
 21
120.4566563128273
 31
0.0
  0
LINE
  5
AF
330
1F
100
AcDbEntity
  8
0
100
AcDbLine
 10
114.9578800055878
 20
102.5705614033726
 30
0.0
 11
114.5175065873602
 21
102.6139343993351
 31
0.0
  0
LINE
  5
B0
330
1F
100
AcDbEntity
  8
0
100
AcDbLine
 10
121.0226886428161
 20
105.5613940425769
 30
0.0
 11
120.7649398173606
 21
105.2017059732216
 31
0.0
  0
LINE
  5
B1
330
1F
100
AcDbEntity
  8
0
100
AcDbLine
 10
112.8123757062969
 20
103.0708228419053
 30
0.0
 11
112.4093146409791
 21
103.2534474346775
 31
0.0
  0
LINE
  5
B2
330
1F
100
AcDbEntity
  8
0
100
AcDbLine
 10
109.5439336773982
 20
105.9371695719057
 30
0.0
 11
109.3353386429551
 21
106.3274234327014
 31
0.0
  0
LINE
  5
B3
330
1F
100
AcDbEntity
  8
0
100
AcDbLine
 10
110.9415368116507
 20
104.2341852254462
 30
0.0
 11
110.6185688963268
 21
104.5366776880492
 31
0.0
  0
LINE
  5
B4
330
1F
100
AcDbEntity
  8
0
100
AcDbLine
 10
108.7679075382433
 20
107.9990215638069
 30
0.0
 11
108.6958256076127
 21
108.4356153790825
 31
0.0
  0
LINE
  5
B5
330
1F
100
AcDbEntity
  8
0
100
AcDbLine
 10
119.5166973788676
 20
103.9534635347286
 30
0.0
 11
119.1570093095122
 21
103.6957147092731
 31
0.0
  0
LINE
  5
B6
330
1F
100
AcDbEntity
  8
0
100
AcDbLine
 10
112.0190607801834
 20
103.4620424691205
 30
0.0
 11
111.6432852508545
 21
103.695714709273
 31
0.0
  0
LINE
  5
B7
330
1F
100
AcDbEntity
  8
0
100
AcDbLine
 10
116.2827879730066
 20
102.6139343993351
 30
0.0
 11
115.842414554779
 21
102.5705614033726
 31
0.0
  0
LINE
  5
B8
330
1F
100
AcDbEntity
  8
0
100
AcDbLine
 10
120.18172566404
 20
104.5366776880492
 30
0.0
 11
119.8587577487161
 21
104.2341852254463
 31
0.0
  0
LINE
  5
B9
330
1F
100
AcDbEntity
  8
0
100
AcDbLine
 10
116.7193817882821
 20
102.6860163299656
 30
0.0
 11
116.2827879730066
 21
102.6139343993351
 31
0.0
  0
LINE
  5
BA
330
1F
100
AcDbEntity
  8
0
100
AcDbLine
 10
120.484218126643
 20
104.8596456033731
 30
0.0
 11
120.18172566404
 21
104.5366776880492
 31
0.0
  0
LINE
  5
BB
330
1F
100
AcDbEntity
  8
0
100
AcDbLine
 10
113.6499681215054
 20
102.7864985293711
 30
0.0
 11
113.2265180067759
 21
102.9149507173475
 31
0.0
  0
LINE
  5
BC
330
1F
100
AcDbEntity
  8
0
100
AcDbLine
 10
120.7649398173606
 20
105.2017059732216
 30
0.0
 11
120.484218126643
 21
104.8596456033731
 31
0.0
  0
LINE
  5
BD
330
1F
100
AcDbEntity
  8
0
100
AcDbLine
 10
108.9968419256251
 20
111.4918853453132
 30
0.0
 11
109.152714050183
 21
111.9060276457922
 31
0.0
  0
LINE
  5
BE
330
1F
100
AcDbEntity
  8
0
100
AcDbLine
 10
110.3160764337239
 20
104.859645603373
 30
0.0
 11
110.0353547430062
 21
105.2017059732215
 31
0.0
  0
LINE
  5
BF
330
1F
100
AcDbEntity
  8
0
100
AcDbLine
 10
115.842414554779
 20
102.5705614033726
 30
0.0
 11
115.4001472801834
 21
102.5560830719058
 31
0.0
  0
LINE
  5
C0
330
1F
100
AcDbEntity
  8
0
100
AcDbLine
 10
115.4001472801834
 20
102.5560830719058
 30
0.0
 11
114.9578800055878
 21
102.5705614033726
 31
0.0
  0
LINE
  5
C1
330
1F
100
AcDbEntity
  8
0
100
AcDbLine
 10
122.0323870221236
 20
107.999021563807
 30
0.0
 11
121.931904822718
 21
107.5680769132277
 31
0.0
  0
LINE
  5
C2
330
1F
100
AcDbEntity
  8
0
100
AcDbLine
 10
117.1503264388614
 20
102.7864985293711
 30
0.0
 11
116.7193817882821
 21
102.6860163299656
 31
0.0
  0
LINE
  5
C3
330
1F
100
AcDbEntity
  8
0
100
AcDbLine
 10
122.1044689527541
 20
108.4356153790825
 30
0.0
 11
122.0323870221236
 21
107.999021563807
 31
0.0
  0
LINE
  5
C4
330
1F
100
AcDbEntity
  8
0
100
AcDbLine
 10
121.6475805101839
 20
106.7304844980192
 30
0.0
 11
121.4649559174117
 21
106.3274234327015
 31
0.0
  0
LINE
  5
C5
330
1F
100
AcDbEntity
  8
0
100
AcDbLine
 10
108.6958256076127
 20
110.200896764729
 30
0.0
 11
108.7679075382433
 21
110.6374905800045
 31
0.0
  0
LINE
  5
C6
330
1F
100
AcDbEntity
  8
0
100
AcDbLine
 10
117.9879188540699
 20
103.0708228419053
 30
0.0
 11
117.5737765535909
 21
102.9149507173475
 31
0.0
  0
LINE
  5
C7
330
1F
100
AcDbEntity
  8
0
100
AcDbLine
 10
122.1623202801834
 20
109.3182560719058
 30
0.0
 11
122.1478419487166
 21
108.8759887973102
 31
0.0
  0
LINE
  5
C8
330
1F
100
AcDbEntity
  8
0
100
AcDbLine
 10
108.8683897376488
 20
107.5680769132277
 30
0.0
 11
108.7679075382433
 21
107.9990215638069
 31
0.0
  0
LINE
  5
C9
330
1F
100
AcDbEntity
  8
0
100
AcDbLine
 10
108.6379742801834
 20
109.3182560719057
 30
0.0
 11
108.6524526116503
 21
109.7605233465013
 31
0.0
  0
LINE
  5
CA
330
1F
100
AcDbEntity
  8
0
100
AcDbLine
 10
121.2563608829686
 20
105.9371695719058
 30
0.0
 11
121.0226886428161
 21
105.5613940425769
 31
0.0
  0
LINE
  5
CB
330
1F
100
AcDbEntity
  8
0
100
AcDbLine
 10
121.4649559174117
 20
106.3274234327015
 30
0.0
 11
121.2563608829686
 21
105.9371695719058
 31
0.0
  0
LINE
  5
CC
330
1F
100
AcDbEntity
  8
0
100
AcDbLine
 10
118.7812337801834
 20
103.4620424691206
 30
0.0
 11
118.3909799193877
 21
103.2534474346775
 31
0.0
  0
LINE
  5
CD
330
1F
100
AcDbEntity
  8
0
100
AcDbLine
 10
114.5175065873602
 20
102.6139343993351
 30
0.0
 11
114.0809127720846
 21
102.6860163299656
 31
0.0
  0
LINE
  5
CE
330
1F
100
AcDbEntity
  8
0
100
AcDbLine
 10
108.7679075382433
 20
110.6374905800045
 30
0.0
 11
108.8683897376488
 21
111.0684352305838
 31
0.0
  0
LINE
  5
CF
330
1F
100
AcDbEntity
  8
0
100
AcDbLine
 10
111.6432852508545
 20
103.695714709273
 30
0.0
 11
111.2835971814992
 21
103.9534635347285
 31
0.0
  0
LINE
  5
D0
330
1F
100
AcDbEntity
  8
0
100
AcDbLine
 10
121.931904822718
 20
107.5680769132277
 30
0.0
 11
121.8034526347417
 21
107.1446267984983
 31
0.0
  0
LINE
  5
D1
330
1F
100
AcDbEntity
  8
0
100
AcDbLine
 10
108.9968419256251
 20
107.1446267984982
 30
0.0
 11
108.8683897376488
 21
107.5680769132277
 31
0.0
  0
LINE
  5
D2
330
1F
100
AcDbEntity
  8
0
100
AcDbLine
 10
122.1478419487166
 20
108.8759887973102
 30
0.0
 11
122.1044689527541
 21
108.4356153790825
 31
0.0
  0
LINE
  5
D3
330
1F
100
AcDbEntity
  8
0
100
AcDbLine
 10
121.8034526347417
 20
107.1446267984983
 30
0.0
 11
121.6475805101839
 21
106.7304844980192
 31
0.0
  0
LINE
  5
D4
330
1F
100
AcDbEntity
  8
0
100
AcDbLine
 10
110.6185688963268
 20
104.5366776880492
 30
0.0
 11
110.3160764337239
 21
104.859645603373
 31
0.0
  0
LINE
  5
D5
330
1F
100
AcDbEntity
  8
0
100
AcDbLine
 10
117.5737765535909
 20
102.9149507173475
 30
0.0
 11
117.1503264388614
 21
102.7864985293711
 31
0.0
  0
LINE
  5
D6
330
1F
100
AcDbEntity
  8
0
100
AcDbLine
 10
109.152714050183
 20
106.7304844980192
 30
0.0
 11
108.9968419256251
 21
107.1446267984982
 31
0.0
  0
LINE
  5
D7
330
1F
100
AcDbEntity
  8
0
100
AcDbLine
 10
108.6524526116503
 20
109.7605233465013
 30
0.0
 11
108.6958256076127
 21
110.200896764729
 31
0.0
  0
LINE
  5
D8
330
1F
100
AcDbEntity
  8
0
100
AcDbLine
 10
114.0809127720846
 20
102.6860163299656
 30
0.0
 11
113.6499681215054
 21
102.7864985293711
 31
0.0
  0
LINE
  5
D9
330
1F
100
AcDbEntity
  8
0
100
AcDbLine
 10
109.3353386429551
 20
106.3274234327014
 30
0.0
 11
109.152714050183
 21
106.7304844980192
 31
0.0
  0
LINE
  5
DA
330
1F
100
AcDbEntity
  8
0
100
AcDbLine
 10
119.1570093095122
 20
103.6957147092731
 30
0.0
 11
118.7812337801834
 21
103.4620424691206
 31
0.0
  0
LINE
  5
DB
330
1F
100
AcDbEntity
  8
0
100
AcDbLine
 10
118.3909799193877
 20
103.2534474346775
 30
0.0
 11
117.9879188540699
 21
103.0708228419053
 31
0.0
  0
LINE
  5
DC
330
1F
100
AcDbEntity
  8
0
100
AcDbLine
 10
108.6958256076127
 20
108.4356153790825
 30
0.0
 11
108.6524526116503
 21
108.8759887973101
 31
0.0
  0
LINE
  5
DD
330
1F
100
AcDbEntity
  8
0
100
AcDbLine
 10
112.4093146409791
 20
103.2534474346775
 30
0.0
 11
112.0190607801834
 21
103.4620424691205
 31
0.0
  0
LINE
  5
DE
330
1F
100
AcDbEntity
  8
0
100
AcDbLine
 10
119.8587577487161
 20
104.2341852254463
 30
0.0
 11
119.5166973788676
 21
103.9534635347286
 31
0.0
  0
LINE
  5
DF
330
1F
100
AcDbEntity
  8
0
100
AcDbLine
 10
108.8683897376488
 20
111.0684352305838
 30
0.0
 11
108.9968419256251
 21
111.4918853453132
 31
0.0
  0
LINE
  5
E0
330
1F
100
AcDbEntity
  8
0
100
AcDbLine
 10
108.6524526116503
 20
108.8759887973101
 30
0.0
 11
108.6379742801834
 21
109.3182560719057
 31
0.0
  0
LINE
  5
E1
330
1F
100
AcDbEntity
  8
0
100
AcDbLine
 10
110.0353547430062
 20
105.2017059732215
 30
0.0
 11
109.7776059175507
 21
105.5613940425768
 31
0.0
  0
LINE
  5
E2
330
1F
100
AcDbEntity
  8
0
100
AcDbLine
 10
110.6185688963268
 20
114.0998344557623
 30
0.0
 11
110.9415368116507
 21
114.4023269183653
 31
0.0
  0
LINE
  5
E3
330
1F
100
AcDbEntity
  8
0
100
AcDbLine
 10
121.4649559174118
 20
112.30908871111
 30
0.0
 11
121.6475805101839
 21
111.9060276457923
 31
0.0
  0
LINE
  5
E4
330
1F
100
AcDbEntity
  8
0
100
AcDbLine
 10
118.3909799193877
 20
115.3830647091341
 30
0.0
 11
118.7812337801834
 21
115.174469674691
 31
0.0
  0
LINE
  5
E5
330
1F
100
AcDbEntity
  8
0
100
AcDbLine
 10
121.2563608829687
 20
112.6993425719057
 30
0.0
 11
121.4649559174118
 21
112.30908871111
 31
0.0
  0
LINE
  5
E6
330
1F
100
AcDbEntity
  8
0
100
AcDbLine
 10
117.98791885407
 20
115.5656893019062
 30
0.0
 11
118.3909799193877
 21
115.3830647091341
 31
0.0
  0
LINE
  5
E7
330
1F
100
AcDbEntity
  8
0
100
AcDbLine
 10
117.1503264388614
 20
115.8500136144404
 30
0.0
 11
117.5737765535909
 21
115.7215614264641
 31
0.0
  0
LINE
  5
E8
330
1F
100
AcDbEntity
  8
0
100
AcDbLine
 10
109.3353386429551
 20
112.30908871111
 30
0.0
 11
109.5439336773982
 21
112.6993425719057
 31
0.0
  0
LINE
  5
E9
330
1F
100
AcDbEntity
  8
0
100
AcDbLine
 10
122.1478419487165
 20
109.7605233465013
 30
0.0
 11
122.1623202801834
 21
109.3182560719058
 31
0.0
  0
LINE
  5
EA
330
1F
100
AcDbEntity
  8
0
100
AcDbLine
 10
121.0226886428162
 20
113.0751181012346
 30
0.0
 11
121.2563608829687
 21
112.6993425719057
 31
0.0
  0
LINE
  5
EB
330
1F
100
AcDbEntity
  8
0
100
AcDbLine
 10
118.7812337801834
 20
115.174469674691
 30
0.0
 11
119.1570093095123
 21
114.9407974345385
 31
0.0
  0
LINE
  5
EC
330
1F
100
AcDbEntity
  8
0
100
AcDbLine
 10
110.9415368116507
 20
114.4023269183653
 30
0.0
 11
111.2835971814992
 21
114.6830486090829
 31
0.0
  0
LINE
  5
ED
330
1F
100
AcDbEntity
  8
0
100
AcDbLine
 10
121.6475805101839
 20
111.9060276457923
 30
0.0
 11
121.8034526347417
 21
111.4918853453132
 31
0.0
  0
LINE
  5
EE
330
1F
100
AcDbEntity
  8
0
100
AcDbLine
 10
111.6432852508545
 20
114.9407974345384
 30
0.0
 11
112.0190607801834
 21
115.174469674691
 31
0.0
  0
LINE
  5
EF
330
1F
100
AcDbEntity
  8
0
100
AcDbLine
 10
112.8123757062969
 20
115.5656893019062
 30
0.0
 11
113.2265180067759
 21
115.7215614264641
 31
0.0
  0
LINE
  5
F0
330
1F
100
AcDbEntity
  8
0
100
AcDbLine
 10
119.1570093095123
 20
114.9407974345385
 30
0.0
 11
119.5166973788676
 21
114.683048609083
 31
0.0
  0
LINE
  5
F1
330
1F
100
AcDbEntity
  8
0
100
AcDbLine
 10
115.842414554779
 20
116.0659507404389
 30
0.0
 11
116.2827879730067
 21
116.0225777444765
 31
0.0
  0
LINE
  5
F2
330
1F
100
AcDbEntity
  8
0
100
AcDbLine
 10
111.2835971814992
 20
103.9534635347285
 30
0.0
 11
110.9415368116507
 21
104.2341852254462
 31
0.0
  0
LINE
  5
F3
330
1F
100
AcDbEntity
  8
0
100
AcDbLine
 10
122.1044689527541
 20
110.200896764729
 30
0.0
 11
122.1478419487165
 21
109.7605233465013
 31
0.0
  0
LINE
  5
F4
330
1F
100
AcDbEntity
  8
0
100
AcDbLine
 10
121.931904822718
 20
111.0684352305838
 30
0.0
 11
122.0323870221236
 21
110.6374905800045
 31
0.0
  0
LINE
  5
F5
330
1F
100
AcDbEntity
  8
0
100
AcDbLine
 10
119.8587577487161
 20
114.4023269183653
 30
0.0
 11
120.18172566404
 21
114.0998344557623
 31
0.0
  0
LINE
  5
F6
330
1F
100
AcDbEntity
  8
0
100
AcDbLine
 10
110.3160764337239
 20
113.7768665404384
 30
0.0
 11
110.6185688963268
 21
114.0998344557623
 31
0.0
  0
LINE
  5
F7
330
1F
100
AcDbEntity
  8
0
100
AcDbLine
 10
109.7776059175507
 20
113.0751181012346
 30
0.0
 11
110.0353547430062
 21
113.4348061705899
 31
0.0
  0
LINE
  5
F8
330
1F
100
AcDbEntity
  8
0
100
AcDbLine
 10
113.2265180067759
 20
115.7215614264641
 30
0.0
 11
113.6499681215053
 21
115.8500136144404
 31
0.0
  0
LINE
  5
F9
330
1F
100
AcDbEntity
  8
0
100
AcDbLine
 10
113.6499681215053
 20
115.8500136144404
 30
0.0
 11
114.0809127720846
 21
115.9504958138459
 31
0.0
  0
LINE
  5
FA
330
1F
100
AcDbEntity
  8
0
100
AcDbLine
 10
119.5166973788676
 20
114.683048609083
 30
0.0
 11
119.8587577487161
 21
114.4023269183653
 31
0.0
  0
LINE
  5
FB
330
1F
100
AcDbEntity
  8
0
100
AcDbLine
 10
111.2835971814992
 20
114.6830486090829
 30
0.0
 11
111.6432852508545
 21
114.9407974345384
 31
0.0
  0
LINE
  5
FC
330
1F
100
AcDbEntity
  8
0
100
AcDbLine
 10
114.9578800055878
 20
116.0659507404389
 30
0.0
 11
115.4001472801834
 21
116.0804290719057
 31
0.0
  0
LINE
  5
FD
330
1F
100
AcDbEntity
  8
0
100
AcDbLine
 10
114.5175065873601
 20
116.0225777444765
 30
0.0
 11
114.9578800055878
 21
116.0659507404389
 31
0.0
  0
LINE
  5
FE
330
1F
100
AcDbEntity
  8
0
100
AcDbLine
 10
120.7649398173606
 20
113.4348061705899
 30
0.0
 11
121.0226886428162
 21
113.0751181012346
 31
0.0
  0
LINE
  5
FF
330
1F
100
AcDbEntity
  8
0
100
AcDbLine
 10
109.5439336773982
 20
112.6993425719057
 30
0.0
 11
109.7776059175507
 21
113.0751181012346
 31
0.0
  0
LINE
  5
100
330
1F
100
AcDbEntity
  8
0
100
AcDbLine
 10
109.7776059175507
 20
105.5613940425768
 30
0.0
 11
109.5439336773982
 21
105.9371695719057
 31
0.0
  0
LINE
  5
101
330
1F
100
AcDbEntity
  8
0
100
AcDbLine
 10
112.4093146409791
 20
115.3830647091341
 30
0.0
 11
112.8123757062969
 21
115.5656893019062
 31
0.0
  0
LINE
  5
102
330
1F
100
AcDbEntity
  8
0
100
AcDbLine
 10
115.4001472801834
 20
116.0804290719057
 30
0.0
 11
115.842414554779
 21
116.0659507404389
 31
0.0
  0
LINE
  5
103
330
1F
100
AcDbEntity
  8
0
100
AcDbLine
 10
117.5737765535909
 20
115.7215614264641
 30
0.0
 11
117.98791885407
 21
115.5656893019062
 31
0.0
  0
LINE
  5
104
330
1F
100
AcDbEntity
  8
0
100
AcDbLine
 10
112.0190607801834
 20
115.174469674691
 30
0.0
 11
112.4093146409791
 21
115.3830647091341
 31
0.0
  0
LINE
  5
105
330
1F
100
AcDbEntity
  8
0
100
AcDbLine
 10
110.0353547430062
 20
113.4348061705899
 30
0.0
 11
110.3160764337239
 21
113.7768665404384
 31
0.0
  0
LINE
  5
106
330
1F
100
AcDbEntity
  8
0
100
AcDbLine
 10
116.2827879730067
 20
116.0225777444765
 30
0.0
 11
116.7193817882822
 21
115.9504958138459
 31
0.0
  0
LINE
  5
107
330
1F
100
AcDbEntity
  8
0
100
AcDbLine
 10
122.0323870221236
 20
110.6374905800045
 30
0.0
 11
122.1044689527541
 21
110.200896764729
 31
0.0
  0
LINE
  5
108
330
1F
100
AcDbEntity
  8
0
100
AcDbLine
 10
113.2265180067759
 20
102.9149507173475
 30
0.0
 11
112.8123757062969
 21
103.0708228419053
 31
0.0
  0
LINE
  5
109
330
1F
100
AcDbEntity
  8
0
100
AcDbLine
 10
120.18172566404
 20
114.0998344557623
 30
0.0
 11
120.484218126643
 21
113.7768665404384
 31
0.0
  0
LINE
  5
10A
330
1F
100
AcDbEntity
  8
0
100
AcDbLine
 10
121.8034526347417
 20
111.4918853453132
 30
0.0
 11
121.931904822718
 21
111.0684352305838
 31
0.0
  0
LINE
  5
10B
330
1F
100
AcDbEntity
  8
0
100
AcDbLine
 10
109.152714050183
 20
111.9060276457922
 30
0.0
 11
109.3353386429551
 21
112.30908871111
 31
0.0
  0
LINE
  5
10C
330
1F
100
AcDbEntity
  8
0
100
AcDbLine
 10
114.0809127720846
 20
115.9504958138459
 30
0.0
 11
114.5175065873601
 21
116.0225777444765
 31
0.0
  0
LINE
  5
10D
330
1F
100
AcDbEntity
  8
0
100
AcDbLine
 10
120.484218126643
 20
113.7768665404384
 30
0.0
 11
120.7649398173606
 21
113.4348061705899
 31
0.0
  0
LINE
  5
10E
330
1F
100
AcDbEntity
  8
0
100
AcDbLine
 10
116.7193817882822
 20
115.9504958138459
 30
0.0
 11
117.1503264388614
 21
115.8500136144404
 31
0.0
  0
LINE
  5
10F
330
1F
100
AcDbEntity
  8
0
100
AcDbLine
 10
98.51001697270259
 20
-201.1373847282756
 30
0.0
 11
99.32724009173799
 21
-202.1909424249711
 31
0.0
  0
LINE
  5
110
330
1F
100
AcDbEntity
  8
0
100
AcDbLine
 10
123.4942651739934
 20
-208.3959798260069
 30
0.0
 11
124.717958543552
 21
-207.8664404187369
 31
0.0
  0
LINE
  5
111
330
1F
100
AcDbEntity
  8
0
100
AcDbLine
 10
94.8324413222153
 20
-192.6390088231614
 30
0.0
 11
95.1233038584975
 21
-193.9402530091399
 31
0.0
  0
LINE
  5
112
330
1F
100
AcDbEntity
  8
0
100
AcDbLine
 10
97.08182661416963
 20
-198.8869168271895
 30
0.0
 11
97.76055989194548
 21
-200.0345921228165
 31
0.0
  0
LINE
  5
113
330
1F
100
AcDbEntity
  8
0
100
AcDbLine
 10
122.2397364292807
 20
-208.8476379657989
 30
0.0
 11
123.4942651739934
 21
-208.3959798260069
 31
0.0
  0
LINE
  5
114
330
1F
100
AcDbEntity
  8
0
100
AcDbLine
 10
95.1233038584975
 20
-193.9402530091399
 30
0.0
 11
95.49529824247723
 21
-195.2206660771927
 31
0.0
  0
LINE
  5
115
330
1F
100
AcDbEntity
  8
0
100
AcDbLine
 10
109.122270131084
 20
-208.8476379657991
 30
0.0
 11
110.4026831991366
 21
-209.2196323497788
 31
0.0
  0
LINE
  5
116
330
1F
100
AcDbEntity
  8
0
100
AcDbLine
 10
111.7039273851141
 20
-209.5104948860608
 30
0.0
 11
113.0208672726961
 21
-209.7190776730965
 31
0.0
  0
LINE
  5
117
330
1F
100
AcDbEntity
  8
0
100
AcDbLine
 10
94.62385853517965
 20
-191.3220689355798
 30
0.0
 11
94.8324413222153
 21
-192.6390088231614
 31
0.0
  0
LINE
  5
118
330
1F
100
AcDbEntity
  8
0
100
AcDbLine
 10
97.76055989194548
 20
-200.0345921228165
 30
0.0
 11
98.51001697270259
 21
-201.1373847282756
 31
0.0
  0
LINE
  5
119
330
1F
100
AcDbEntity
  8
0
100
AcDbLine
 10
96.47649578953921
 20
-197.6988881914641
 30
0.0
 11
97.08182661416963
 21
-198.8869168271895
 31
0.0
  0
LINE
  5
11A
330
1F
100
AcDbEntity
  8
0
100
AcDbLine
 10
120.9593233612274
 20
-209.219632349779
 30
0.0
 11
122.2397364292807
 21
-208.8476379657989
 31
0.0
  0
LINE
  5
11B
330
1F
100
AcDbEntity
  8
0
100
AcDbLine
 10
117.0137010585648
 20
-209.8445575299181
 30
0.0
 11
118.3411392876679
 21
-209.7190776730965
 31
0.0
  0
LINE
  5
11C
330
1F
100
AcDbEntity
  8
0
100
AcDbLine
 10
119.6580791752502
 20
-209.5104948860608
 30
0.0
 11
120.9593233612274
 21
-209.219632349779
 31
0.0
  0
LINE
  5
11D
330
1F
100
AcDbEntity
  8
0
100
AcDbLine
 10
101.1518289062765
 20
-204.1339321655215
 30
0.0
 11
102.1519937833051
 21
-205.0156961165385
 31
0.0
  0
LINE
  5
11E
330
1F
100
AcDbEntity
  8
0
100
AcDbLine
 10
95.9469563822693
 20
-196.4751948219053
 30
0.0
 11
96.47649578953921
 21
-197.6988881914641
 31
0.0
  0
LINE
  5
11F
330
1F
100
AcDbEntity
  8
0
100
AcDbLine
 10
103.2055514800002
 20
-205.8329192355735
 30
0.0
 11
104.3083440854598
 21
-206.582376316331
 31
0.0
  0
LINE
  5
120
330
1F
100
AcDbEntity
  8
0
100
AcDbLine
 10
94.49837867835829
 20
-189.9946307064778
 30
0.0
 11
94.62385853517965
 21
-191.3220689355798
 31
0.0
  0
LINE
  5
121
330
1F
100
AcDbEntity
  8
0
100
AcDbLine
 10
102.1519937833051
 20
-205.0156961165385
 30
0.0
 11
103.2055514800002
 21
-205.8329192355735
 31
0.0
  0
LINE
  5
122
330
1F
100
AcDbEntity
  8
0
100
AcDbLine
 10
99.32724009173799
 20
-202.1909424249711
 30
0.0
 11
100.209004042755
 21
-203.1911073019999
 31
0.0
  0
LINE
  5
123
330
1F
100
AcDbEntity
  8
0
100
AcDbLine
 10
94.45550984054805
 20
-188.630522169016
 30
0.0
 11
94.49837867835829
 21
-189.9946307064778
 31
0.0
  0
LINE
  5
124
330
1F
100
AcDbEntity
  8
0
100
AcDbLine
 10
95.49529824247723
 20
-195.2206660771927
 30
0.0
 11
95.9469563822693
 21
-196.4751948219053
 31
0.0
  0
LINE
  5
125
330
1F
100
AcDbEntity
  8
0
100
AcDbLine
 10
100.209004042755
 20
-203.1911073019999
 30
0.0
 11
101.1518289062765
 21
-204.1339321655215
 31
0.0
  0
LINE
  5
126
330
1F
100
AcDbEntity
  8
0
100
AcDbLine
 10
135.4150501780951
 20
-196.4751948219052
 30
0.0
 11
135.866708317887
 21
-195.2206660771925
 31
0.0
  0
LINE
  5
127
330
1F
100
AcDbEntity
  8
0
100
AcDbLine
 10
114.3483055017996
 20
-209.8445575299182
 30
0.0
 11
115.6810032801822
 21
-209.886439244857
 31
0.0
  0
LINE
  5
128
330
1F
100
AcDbEntity
  8
0
100
AcDbLine
 10
106.6440480168125
 20
-207.8664404187371
 30
0.0
 11
107.8677413863706
 21
-208.3959798260069
 31
0.0
  0
LINE
  5
129
330
1F
100
AcDbEntity
  8
0
100
AcDbLine
 10
115.6810032801822
 20
-209.886439244857
 30
0.0
 11
117.0137010585648
 21
-209.8445575299181
 31
0.0
  0
LINE
  5
12A
330
1F
100
AcDbEntity
  8
0
100
AcDbLine
 10
118.3411392876679
 20
-209.7190776730965
 30
0.0
 11
119.6580791752502
 21
-209.5104948860608
 31
0.0
  0
LINE
  5
12B
330
1F
100
AcDbEntity
  8
0
100
AcDbLine
 10
132.0347664686264
 20
-202.1909424249714
 30
0.0
 11
132.8519895876619
 21
-201.1373847282757
 31
0.0
  0
LINE
  5
12C
330
1F
100
AcDbEntity
  8
0
100
AcDbLine
 10
113.0208672726961
 20
-209.7190776730965
 30
0.0
 11
114.3483055017996
 21
-209.8445575299182
 31
0.0
  0
LINE
  5
12D
330
1F
100
AcDbEntity
  8
0
100
AcDbLine
 10
125.9059871792774
 20
-207.2611095941066
 30
0.0
 11
127.0536624749048
 21
-206.5823763163308
 31
0.0
  0
LINE
  5
12E
330
1F
100
AcDbEntity
  8
0
100
AcDbLine
 10
104.3083440854598
 20
-206.582376316331
 30
0.0
 11
105.4560193810866
 21
-207.2611095941066
 31
0.0
  0
LINE
  5
12F
330
1F
100
AcDbEntity
  8
0
100
AcDbLine
 10
127.0536624749048
 20
-206.5823763163308
 30
0.0
 11
128.1564550803641
 21
-205.8329192355735
 31
0.0
  0
LINE
  5
130
330
1F
100
AcDbEntity
  8
0
100
AcDbLine
 10
132.8519895876619
 20
-201.1373847282757
 30
0.0
 11
133.6014466684194
 21
-200.0345921228162
 31
0.0
  0
LINE
  5
131
330
1F
100
AcDbEntity
  8
0
100
AcDbLine
 10
135.866708317887
 20
-195.2206660771925
 30
0.0
 11
136.238702701867
 21
-193.9402530091392
 31
0.0
  0
LINE
  5
132
330
1F
100
AcDbEntity
  8
0
100
AcDbLine
 10
110.4026831991366
 20
-209.2196323497788
 30
0.0
 11
111.7039273851141
 21
-209.5104948860608
 31
0.0
  0
LINE
  5
133
330
1F
100
AcDbEntity
  8
0
100
AcDbLine
 10
133.6014466684194
 20
-200.0345921228162
 30
0.0
 11
134.2801799461947
 21
-198.8869168271899
 31
0.0
  0
LINE
  5
134
330
1F
100
AcDbEntity
  8
0
100
AcDbLine
 10
130.2101776540873
 20
-204.1339321655218
 30
0.0
 11
131.15300251761
 21
-203.1911073019992
 31
0.0
  0
LINE
  5
135
330
1F
100
AcDbEntity
  8
0
100
AcDbLine
 10
128.1564550803641
 20
-205.8329192355735
 30
0.0
 11
129.2100127770595
 21
-205.0156961165382
 31
0.0
  0
LINE
  5
136
330
1F
100
AcDbEntity
  8
0
100
AcDbLine
 10
134.2801799461947
 20
-198.8869168271899
 30
0.0
 11
134.8855107708249
 21
-197.6988881914642
 31
0.0
  0
LINE
  5
137
330
1F
100
AcDbEntity
  8
0
100
AcDbLine
 10
124.717958543552
 20
-207.8664404187369
 30
0.0
 11
125.9059871792774
 21
-207.2611095941066
 31
0.0
  0
LINE
  5
138
330
1F
100
AcDbEntity
  8
0
100
AcDbLine
 10
136.5295652381486
 20
-192.6390088231628
 30
0.0
 11
136.7381480251846
 21
-191.3220689355799
 31
0.0
  0
LINE
  5
139
330
1F
100
AcDbEntity
  8
0
100
AcDbLine
 10
136.7381480251846
 20
-191.3220689355799
 30
0.0
 11
136.8636278820063
 21
-189.9946307064761
 31
0.0
  0
LINE
  5
13A
330
1F
100
AcDbEntity
  8
0
100
AcDbLine
 10
105.4560193810866
 20
-207.2611095941066
 30
0.0
 11
106.6440480168125
 21
-207.8664404187371
 31
0.0
  0
LINE
  5
13B
330
1F
100
AcDbEntity
  8
0
100
AcDbLine
 10
136.238702701867
 20
-193.9402530091392
 30
0.0
 11
136.5295652381486
 21
-192.6390088231628
 31
0.0
  0
LINE
  5
13C
330
1F
100
AcDbEntity
  8
0
100
AcDbLine
 10
136.8636278820063
 20
-189.9946307064761
 30
0.0
 11
136.9064967198166
 21
-188.6305221690159
 31
0.0
  0
LINE
  5
13D
330
1F
100
AcDbEntity
  8
0
100
AcDbLine
 10
134.8855107708249
 20
-197.6988881914642
 30
0.0
 11
135.4150501780951
 21
-196.4751948219052
 31
0.0
  0
LINE
  5
13E
330
1F
100
AcDbEntity
  8
0
100
AcDbLine
 10
129.2100127770595
 20
-205.0156961165382
 30
0.0
 11
130.2101776540873
 21
-204.1339321655218
 31
0.0
  0
LINE
  5
13F
330
1F
100
AcDbEntity
  8
0
100
AcDbLine
 10
107.8677413863706
 20
-208.3959798260069
 30
0.0
 11
109.122270131084
 21
-208.8476379657991
 31
0.0
  0
LINE
  5
140
330
1F
100
AcDbEntity
  8
0
100
AcDbLine
 10
131.15300251761
 20
-203.1911073019992
 30
0.0
 11
132.0347664686264
 21
-202.1909424249714
 31
0.0
  0
LINE
  5
141
330
1F
100
AcDbEntity
  8
0
100
AcDbLine
 10
94.45600328018303
 20
-34.08693292809404
 30
0.0
 11
136.9060032801823
 21
-34.08693292809438
 31
0.0
  0
LINE
  5
142
330
1F
100
AcDbEntity
  8
0
100
AcDbLine
 10
136.9060032801823
 20
-34.08693292809438
 30
0.0
 11
136.9060032801823
 21
-187.6619329280936
 31
0.0
  0
LINE
  5
143
330
1F
100
AcDbEntity
  8
0
100
AcDbLine
 10
94.45600328018179
 20
-187.661932928094
 30
0.0
 11
94.45600328018303
 21
-34.08693292809404
 31
0.0
  0
LINE
  5
144
330
1F
100
AcDbEntity
  8
0
100
AcDbLine
 10
94.45600328018179
 20
-187.661932928094
 30
0.0
 11
94.45550984054805
 21
-188.630522169016
 31
0.0
  0
LINE
  5
145
330
1F
100
AcDbEntity
  8
0
100
AcDbLine
 10
136.9060032801823
 20
-187.6619329280936
 30
0.0
 11
136.9064967198166
 21
-188.6305221690159
 31
0.0
  0
LINE
  5
146
330
1F
100
AcDbEntity
  8
0
100
AcDbLine
 10
116.4041265547773
 20
-170.7444272595611
 30
0.0
 11
116.844499973005
 21
-170.7878002555236
 31
0.0
  0
LINE
  5
147
330
1F
100
AcDbEntity
  8
0
100
AcDbLine
 10
110.339317917549
 20
-173.7352598987654
 30
0.0
 11
110.5970667430045
 21
-173.3755718294101
 31
0.0
  0
LINE
  5
148
330
1F
100
AcDbEntity
  8
0
100
AcDbLine
 10
118.5496308540683
 20
-171.2446886980938
 30
0.0
 11
118.9526919193861
 21
-171.427313290866
 31
0.0
  0
LINE
  5
149
330
1F
100
AcDbEntity
  8
0
100
AcDbLine
 10
121.818072882967
 20
-174.1110354280943
 30
0.0
 11
122.0266679174101
 21
-174.5012892888899
 31
0.0
  0
LINE
  5
14A
330
1F
100
AcDbEntity
  8
0
100
AcDbLine
 10
120.4204697487144
 20
-172.4080510816347
 30
0.0
 11
120.7434376640383
 21
-172.7105435442377
 31
0.0
  0
LINE
  5
14B
330
1F
100
AcDbEntity
  8
0
100
AcDbLine
 10
122.5940990221219
 20
-176.1728874199954
 30
0.0
 11
122.6661809527524
 21
-176.609481235271
 31
0.0
  0
LINE
  5
14C
330
1F
100
AcDbEntity
  8
0
100
AcDbLine
 10
111.8453091814976
 20
-172.1273293909171
 30
0.0
 11
112.2049972508529
 21
-171.8695805654615
 31
0.0
  0
LINE
  5
14D
330
1F
100
AcDbEntity
  8
0
100
AcDbLine
 10
119.3429457801818
 20
-171.6359083253091
 30
0.0
 11
119.7187213095106
 21
-171.8695805654615
 31
0.0
  0
LINE
  5
14E
330
1F
100
AcDbEntity
  8
0
100
AcDbLine
 10
115.0792185873585
 20
-170.7878002555236
 30
0.0
 11
115.5195920055862
 21
-170.7444272595611
 31
0.0
  0
LINE
  5
14F
330
1F
100
AcDbEntity
  8
0
100
AcDbLine
 10
111.1802808963252
 20
-172.7105435442377
 30
0.0
 11
111.5032488116491
 21
-172.4080510816348
 31
0.0
  0
LINE
  5
150
330
1F
100
AcDbEntity
  8
0
100
AcDbLine
 10
114.642624772083
 20
-170.8598821861541
 30
0.0
 11
115.0792185873585
 21
-170.7878002555236
 31
0.0
  0
LINE
  5
151
330
1F
100
AcDbEntity
  8
0
100
AcDbLine
 10
110.8777884337222
 20
-173.0335114595616
 30
0.0
 11
111.1802808963252
 21
-172.7105435442377
 31
0.0
  0
LINE
  5
152
330
1F
100
AcDbEntity
  8
0
100
AcDbLine
 10
117.7120384388598
 20
-170.9603643855596
 30
0.0
 11
118.1354885535892
 21
-171.088816573536
 31
0.0
  0
LINE
  5
153
330
1F
100
AcDbEntity
  8
0
100
AcDbLine
 10
110.5970667430045
 20
-173.3755718294101
 30
0.0
 11
110.8777884337222
 21
-173.0335114595616
 31
0.0
  0
LINE
  5
154
330
1F
100
AcDbEntity
  8
0
100
AcDbLine
 10
122.3651646347401
 20
-179.6657512015017
 30
0.0
 11
122.2092925101822
 21
-180.0798935019807
 31
0.0
  0
LINE
  5
155
330
1F
100
AcDbEntity
  8
0
100
AcDbLine
 10
121.0459301266413
 20
-173.0335114595615
 30
0.0
 11
121.3266518173589
 21
-173.37557182941
 31
0.0
  0
LINE
  5
156
330
1F
100
AcDbEntity
  8
0
100
AcDbLine
 10
115.5195920055862
 20
-170.7444272595611
 30
0.0
 11
115.9618592801818
 21
-170.7299489280943
 31
0.0
  0
LINE
  5
157
330
1F
100
AcDbEntity
  8
0
100
AcDbLine
 10
115.9618592801818
 20
-170.7299489280943
 30
0.0
 11
116.4041265547773
 21
-170.7444272595611
 31
0.0
  0
LINE
  5
158
330
1F
100
AcDbEntity
  8
0
100
AcDbLine
 10
109.3296195382416
 20
-176.1728874199955
 30
0.0
 11
109.4301017376471
 21
-175.7419427694162
 31
0.0
  0
LINE
  5
159
330
1F
100
AcDbEntity
  8
0
100
AcDbLine
 10
114.2116801215037
 20
-170.9603643855596
 30
0.0
 11
114.642624772083
 21
-170.8598821861541
 31
0.0
  0
LINE
  5
15A
330
1F
100
AcDbEntity
  8
0
100
AcDbLine
 10
109.257537607611
 20
-176.609481235271
 30
0.0
 11
109.3296195382416
 21
-176.1728874199955
 31
0.0
  0
LINE
  5
15B
330
1F
100
AcDbEntity
  8
0
100
AcDbLine
 10
109.7144260501813
 20
-174.9043503542077
 30
0.0
 11
109.8970506429534
 21
-174.50128928889
 31
0.0
  0
LINE
  5
15C
330
1F
100
AcDbEntity
  8
0
100
AcDbLine
 10
122.6661809527524
 20
-178.3747626209175
 30
0.0
 11
122.5940990221219
 21
-178.811356436193
 31
0.0
  0
LINE
  5
15D
330
1F
100
AcDbEntity
  8
0
100
AcDbLine
 10
113.3740877062952
 20
-171.2446886980938
 30
0.0
 11
113.7882300067743
 21
-171.088816573536
 31
0.0
  0
LINE
  5
15E
330
1F
100
AcDbEntity
  8
0
100
AcDbLine
 10
109.1996862801818
 20
-177.4921219280943
 30
0.0
 11
109.2141646116486
 21
-177.0498546534987
 31
0.0
  0
LINE
  5
15F
330
1F
100
AcDbEntity
  8
0
100
AcDbLine
 10
122.4936168227164
 20
-175.7419427694162
 30
0.0
 11
122.5940990221219
 21
-176.1728874199954
 31
0.0
  0
LINE
  5
160
330
1F
100
AcDbEntity
  8
0
100
AcDbLine
 10
122.7240322801817
 20
-177.4921219280942
 30
0.0
 11
122.7095539487149
 21
-177.9343892026898
 31
0.0
  0
LINE
  5
161
330
1F
100
AcDbEntity
  8
0
100
AcDbLine
 10
110.1056456773965
 20
-174.1110354280943
 30
0.0
 11
110.339317917549
 21
-173.7352598987654
 31
0.0
  0
LINE
  5
162
330
1F
100
AcDbEntity
  8
0
100
AcDbLine
 10
109.8970506429534
 20
-174.50128928889
 30
0.0
 11
110.1056456773965
 21
-174.1110354280943
 31
0.0
  0
LINE
  5
163
330
1F
100
AcDbEntity
  8
0
100
AcDbLine
 10
112.5807727801818
 20
-171.6359083253091
 30
0.0
 11
112.9710266409775
 21
-171.427313290866
 31
0.0
  0
LINE
  5
164
330
1F
100
AcDbEntity
  8
0
100
AcDbLine
 10
116.844499973005
 20
-170.7878002555236
 30
0.0
 11
117.2810937882805
 21
-170.8598821861541
 31
0.0
  0
LINE
  5
165
330
1F
100
AcDbEntity
  8
0
100
AcDbLine
 10
122.5940990221219
 20
-178.811356436193
 30
0.0
 11
122.4936168227164
 21
-179.2423010867723
 31
0.0
  0
LINE
  5
166
330
1F
100
AcDbEntity
  8
0
100
AcDbLine
 10
119.7187213095106
 20
-171.8695805654615
 30
0.0
 11
120.0784093788659
 21
-172.127329390917
 31
0.0
  0
LINE
  5
167
330
1F
100
AcDbEntity
  8
0
100
AcDbLine
 10
109.4301017376471
 20
-175.7419427694162
 30
0.0
 11
109.5585539256235
 21
-175.3184926546868
 31
0.0
  0
LINE
  5
168
330
1F
100
AcDbEntity
  8
0
100
AcDbLine
 10
122.3651646347401
 20
-175.3184926546867
 30
0.0
 11
122.4936168227164
 21
-175.7419427694162
 31
0.0
  0
LINE
  5
169
330
1F
100
AcDbEntity
  8
0
100
AcDbLine
 10
109.2141646116486
 20
-177.0498546534987
 30
0.0
 11
109.257537607611
 21
-176.609481235271
 31
0.0
  0
LINE
  5
16A
330
1F
100
AcDbEntity
  8
0
100
AcDbLine
 10
109.5585539256235
 20
-175.3184926546868
 30
0.0
 11
109.7144260501813
 21
-174.9043503542077
 31
0.0
  0
LINE
  5
16B
330
1F
100
AcDbEntity
  8
0
100
AcDbLine
 10
120.7434376640383
 20
-172.7105435442377
 30
0.0
 11
121.0459301266413
 21
-173.0335114595615
 31
0.0
  0
LINE
  5
16C
330
1F
100
AcDbEntity
  8
0
100
AcDbLine
 10
113.7882300067743
 20
-171.088816573536
 30
0.0
 11
114.2116801215037
 21
-170.9603643855596
 31
0.0
  0
LINE
  5
16D
330
1F
100
AcDbEntity
  8
0
100
AcDbLine
 10
122.2092925101822
 20
-174.9043503542077
 30
0.0
 11
122.3651646347401
 21
-175.3184926546867
 31
0.0
  0
LINE
  5
16E
330
1F
100
AcDbEntity
  8
0
100
AcDbLine
 10
122.7095539487149
 20
-177.9343892026898
 30
0.0
 11
122.6661809527524
 21
-178.3747626209175
 31
0.0
  0
LINE
  5
16F
330
1F
100
AcDbEntity
  8
0
100
AcDbLine
 10
117.2810937882805
 20
-170.8598821861541
 30
0.0
 11
117.7120384388598
 21
-170.9603643855596
 31
0.0
  0
LINE
  5
170
330
1F
100
AcDbEntity
  8
0
100
AcDbLine
 10
122.0266679174101
 20
-174.5012892888899
 30
0.0
 11
122.2092925101822
 21
-174.9043503542077
 31
0.0
  0
LINE
  5
171
330
1F
100
AcDbEntity
  8
0
100
AcDbLine
 10
112.2049972508529
 20
-171.8695805654615
 30
0.0
 11
112.5807727801818
 21
-171.6359083253091
 31
0.0
  0
LINE
  5
172
330
1F
100
AcDbEntity
  8
0
100
AcDbLine
 10
112.9710266409775
 20
-171.427313290866
 30
0.0
 11
113.3740877062952
 21
-171.2446886980938
 31
0.0
  0
LINE
  5
173
330
1F
100
AcDbEntity
  8
0
100
AcDbLine
 10
122.6661809527524
 20
-176.609481235271
 30
0.0
 11
122.7095539487149
 21
-177.0498546534986
 31
0.0
  0
LINE
  5
174
330
1F
100
AcDbEntity
  8
0
100
AcDbLine
 10
118.9526919193861
 20
-171.427313290866
 30
0.0
 11
119.3429457801818
 21
-171.6359083253091
 31
0.0
  0
LINE
  5
175
330
1F
100
AcDbEntity
  8
0
100
AcDbLine
 10
111.5032488116491
 20
-172.4080510816348
 30
0.0
 11
111.8453091814976
 21
-172.1273293909171
 31
0.0
  0
LINE
  5
176
330
1F
100
AcDbEntity
  8
0
100
AcDbLine
 10
122.4936168227164
 20
-179.2423010867723
 30
0.0
 11
122.3651646347401
 21
-179.6657512015017
 31
0.0
  0
LINE
  5
177
330
1F
100
AcDbEntity
  8
0
100
AcDbLine
 10
122.7095539487149
 20
-177.0498546534986
 30
0.0
 11
122.7240322801817
 21
-177.4921219280942
 31
0.0
  0
LINE
  5
178
330
1F
100
AcDbEntity
  8
0
100
AcDbLine
 10
121.3266518173589
 20
-173.37557182941
 30
0.0
 11
121.5844006428145
 21
-173.7352598987653
 31
0.0
  0
LINE
  5
179
330
1F
100
AcDbEntity
  8
0
100
AcDbLine
 10
120.7434376640383
 20
-182.2737003119508
 30
0.0
 11
120.4204697487144
 21
-182.5761927745538
 31
0.0
  0
LINE
  5
17A
330
1F
100
AcDbEntity
  8
0
100
AcDbLine
 10
109.8970506429534
 20
-180.4829545672985
 30
0.0
 11
109.7144260501813
 21
-180.0798935019808
 31
0.0
  0
LINE
  5
17B
330
1F
100
AcDbEntity
  8
0
100
AcDbLine
 10
112.9710266409774
 20
-183.5569305653226
 30
0.0
 11
112.5807727801817
 21
-183.3483355308795
 31
0.0
  0
LINE
  5
17C
330
1F
100
AcDbEntity
  8
0
100
AcDbLine
 10
110.1056456773965
 20
-180.8732084280942
 30
0.0
 11
109.8970506429534
 21
-180.4829545672985
 31
0.0
  0
LINE
  5
17D
330
1F
100
AcDbEntity
  8
0
100
AcDbLine
 10
113.3740877062952
 20
-183.7395551580947
 30
0.0
 11
112.9710266409774
 21
-183.5569305653226
 31
0.0
  0
LINE
  5
17E
330
1F
100
AcDbEntity
  8
0
100
AcDbLine
 10
114.2116801215037
 20
-184.0238794706289
 30
0.0
 11
113.7882300067742
 21
-183.8954272826526
 31
0.0
  0
LINE
  5
17F
330
1F
100
AcDbEntity
  8
0
100
AcDbLine
 10
122.0266679174101
 20
-180.4829545672985
 30
0.0
 11
121.818072882967
 21
-180.8732084280942
 31
0.0
  0
LINE
  5
180
330
1F
100
AcDbEntity
  8
0
100
AcDbLine
 10
109.2141646116486
 20
-177.9343892026898
 30
0.0
 11
109.1996862801818
 21
-177.4921219280943
 31
0.0
  0
LINE
  5
181
330
1F
100
AcDbEntity
  8
0
100
AcDbLine
 10
110.339317917549
 20
-181.2489839574231
 30
0.0
 11
110.1056456773965
 21
-180.8732084280942
 31
0.0
  0
LINE
  5
182
330
1F
100
AcDbEntity
  8
0
100
AcDbLine
 10
112.5807727801817
 20
-183.3483355308795
 30
0.0
 11
112.2049972508529
 21
-183.114663290727
 31
0.0
  0
LINE
  5
183
330
1F
100
AcDbEntity
  8
0
100
AcDbLine
 10
120.4204697487144
 20
-182.5761927745538
 30
0.0
 11
120.0784093788659
 21
-182.8569144652714
 31
0.0
  0
LINE
  5
184
330
1F
100
AcDbEntity
  8
0
100
AcDbLine
 10
109.7144260501813
 20
-180.0798935019808
 30
0.0
 11
109.5585539256234
 21
-179.6657512015017
 31
0.0
  0
LINE
  5
185
330
1F
100
AcDbEntity
  8
0
100
AcDbLine
 10
119.7187213095106
 20
-183.114663290727
 30
0.0
 11
119.3429457801818
 21
-183.3483355308795
 31
0.0
  0
LINE
  5
186
330
1F
100
AcDbEntity
  8
0
100
AcDbLine
 10
118.5496308540683
 20
-183.7395551580947
 30
0.0
 11
118.1354885535892
 21
-183.8954272826526
 31
0.0
  0
LINE
  5
187
330
1F
100
AcDbEntity
  8
0
100
AcDbLine
 10
112.2049972508529
 20
-183.114663290727
 30
0.0
 11
111.8453091814975
 21
-182.8569144652714
 31
0.0
  0
LINE
  5
188
330
1F
100
AcDbEntity
  8
0
100
AcDbLine
 10
115.5195920055862
 20
-184.2398165966274
 30
0.0
 11
115.0792185873585
 21
-184.196443600665
 31
0.0
  0
LINE
  5
189
330
1F
100
AcDbEntity
  8
0
100
AcDbLine
 10
120.0784093788659
 20
-172.127329390917
 30
0.0
 11
120.4204697487144
 21
-172.4080510816347
 31
0.0
  0
LINE
  5
18A
330
1F
100
AcDbEntity
  8
0
100
AcDbLine
 10
109.257537607611
 20
-178.3747626209175
 30
0.0
 11
109.2141646116486
 21
-177.9343892026898
 31
0.0
  0
LINE
  5
18B
330
1F
100
AcDbEntity
  8
0
100
AcDbLine
 10
109.4301017376471
 20
-179.2423010867723
 30
0.0
 11
109.3296195382416
 21
-178.811356436193
 31
0.0
  0
LINE
  5
18C
330
1F
100
AcDbEntity
  8
0
100
AcDbLine
 10
111.503248811649
 20
-182.5761927745538
 30
0.0
 11
111.1802808963251
 21
-182.2737003119508
 31
0.0
  0
LINE
  5
18D
330
1F
100
AcDbEntity
  8
0
100
AcDbLine
 10
121.0459301266413
 20
-181.9507323966269
 30
0.0
 11
120.7434376640383
 21
-182.2737003119508
 31
0.0
  0
LINE
  5
18E
330
1F
100
AcDbEntity
  8
0
100
AcDbLine
 10
121.5844006428145
 20
-181.2489839574231
 30
0.0
 11
121.3266518173589
 21
-181.6086720267784
 31
0.0
  0
LINE
  5
18F
330
1F
100
AcDbEntity
  8
0
100
AcDbLine
 10
118.1354885535892
 20
-183.8954272826526
 30
0.0
 11
117.7120384388598
 21
-184.0238794706289
 31
0.0
  0
LINE
  5
190
330
1F
100
AcDbEntity
  8
0
100
AcDbLine
 10
117.7120384388598
 20
-184.0238794706289
 30
0.0
 11
117.2810937882805
 21
-184.1243616700344
 31
0.0
  0
LINE
  5
191
330
1F
100
AcDbEntity
  8
0
100
AcDbLine
 10
111.8453091814975
 20
-182.8569144652714
 30
0.0
 11
111.503248811649
 21
-182.5761927745538
 31
0.0
  0
LINE
  5
192
330
1F
100
AcDbEntity
  8
0
100
AcDbLine
 10
120.0784093788659
 20
-182.8569144652714
 30
0.0
 11
119.7187213095106
 21
-183.114663290727
 31
0.0
  0
LINE
  5
193
330
1F
100
AcDbEntity
  8
0
100
AcDbLine
 10
116.4041265547773
 20
-184.2398165966274
 30
0.0
 11
115.9618592801817
 21
-184.2542949280943
 31
0.0
  0
LINE
  5
194
330
1F
100
AcDbEntity
  8
0
100
AcDbLine
 10
116.844499973005
 20
-184.196443600665
 30
0.0
 11
116.4041265547773
 21
-184.2398165966274
 31
0.0
  0
LINE
  5
195
330
1F
100
AcDbEntity
  8
0
100
AcDbLine
 10
110.5970667430045
 20
-181.6086720267784
 30
0.0
 11
110.339317917549
 21
-181.2489839574231
 31
0.0
  0
LINE
  5
196
330
1F
100
AcDbEntity
  8
0
100
AcDbLine
 10
121.818072882967
 20
-180.8732084280942
 30
0.0
 11
121.5844006428145
 21
-181.2489839574231
 31
0.0
  0
LINE
  5
197
330
1F
100
AcDbEntity
  8
0
100
AcDbLine
 10
121.5844006428145
 20
-173.7352598987653
 30
0.0
 11
121.818072882967
 21
-174.1110354280943
 31
0.0
  0
LINE
  5
198
330
1F
100
AcDbEntity
  8
0
100
AcDbLine
 10
118.9526919193861
 20
-183.5569305653226
 30
0.0
 11
118.5496308540683
 21
-183.7395551580947
 31
0.0
  0
LINE
  5
199
330
1F
100
AcDbEntity
  8
0
100
AcDbLine
 10
115.9618592801817
 20
-184.2542949280943
 30
0.0
 11
115.5195920055862
 21
-184.2398165966274
 31
0.0
  0
LINE
  5
19A
330
1F
100
AcDbEntity
  8
0
100
AcDbLine
 10
113.7882300067742
 20
-183.8954272826526
 30
0.0
 11
113.3740877062952
 21
-183.7395551580947
 31
0.0
  0
LINE
  5
19B
330
1F
100
AcDbEntity
  8
0
100
AcDbLine
 10
119.3429457801818
 20
-183.3483355308795
 30
0.0
 11
118.9526919193861
 21
-183.5569305653226
 31
0.0
  0
LINE
  5
19C
330
1F
100
AcDbEntity
  8
0
100
AcDbLine
 10
121.3266518173589
 20
-181.6086720267784
 30
0.0
 11
121.0459301266413
 21
-181.9507323966269
 31
0.0
  0
LINE
  5
19D
330
1F
100
AcDbEntity
  8
0
100
AcDbLine
 10
115.0792185873585
 20
-184.196443600665
 30
0.0
 11
114.642624772083
 21
-184.1243616700344
 31
0.0
  0
LINE
  5
19E
330
1F
100
AcDbEntity
  8
0
100
AcDbLine
 10
109.3296195382416
 20
-178.811356436193
 30
0.0
 11
109.257537607611
 21
-178.3747626209175
 31
0.0
  0
LINE
  5
19F
330
1F
100
AcDbEntity
  8
0
100
AcDbLine
 10
118.1354885535892
 20
-171.088816573536
 30
0.0
 11
118.5496308540683
 21
-171.2446886980938
 31
0.0
  0
LINE
  5
1A0
330
1F
100
AcDbEntity
  8
0
100
AcDbLine
 10
111.1802808963251
 20
-182.2737003119508
 30
0.0
 11
110.8777884337222
 21
-181.9507323966269
 31
0.0
  0
LINE
  5
1A1
330
1F
100
AcDbEntity
  8
0
100
AcDbLine
 10
109.5585539256234
 20
-179.6657512015017
 30
0.0
 11
109.4301017376471
 21
-179.2423010867723
 31
0.0
  0
LINE
  5
1A2
330
1F
100
AcDbEntity
  8
0
100
AcDbLine
 10
122.2092925101822
 20
-180.0798935019807
 30
0.0
 11
122.0266679174101
 21
-180.4829545672985
 31
0.0
  0
LINE
  5
1A3
330
1F
100
AcDbEntity
  8
0
100
AcDbLine
 10
117.2810937882805
 20
-184.1243616700344
 30
0.0
 11
116.844499973005
 21
-184.196443600665
 31
0.0
  0
LINE
  5
1A4
330
1F
100
AcDbEntity
  8
0
100
AcDbLine
 10
110.8777884337222
 20
-181.9507323966269
 30
0.0
 11
110.5970667430045
 21
-181.6086720267784
 31
0.0
  0
LINE
  5
1A5
330
1F
100
AcDbEntity
  8
0
100
AcDbLine
 10
114.642624772083
 20
-184.1243616700344
 30
0.0
 11
114.2116801215037
 21
-184.0238794706289
 31
0.0
  0
ENDSEC
  0
SECTION
  2
OBJECTS
  0
DICTIONARY
  5
C
330
0
100
AcDbDictionary
  3
ACAD_GROUP
350
D
  3
ACAD_LAYOUT
350
1A
  3
ACAD_MATERIAL
350
43
  3
ACAD_MLEADERSTYLE
350
1C8
  3
ACAD_MLINESTYLE
350
17
  3
ACAD_PLOTSETTINGS
350
19
  3
ACAD_SCALELIST
350
47
  3
ACAD_VISUALSTYLE
350
2A
  3
ACDBHEADERROUNDTRIPXREC
350
1A6
  3
ACDBVARIABLEDICTIONARY
350
1C6
  0
DICTIONARY
  5
1CD
330
8
100
AcDbDictionary
280
     1
  3
ACAD_XREC_ROUNDTRIP
360
1CE
  0
DICTIONARY
  5
D
102
{ACAD_REACTORS
330
C
102
}
330
C
100
AcDbDictionary
  0
DICTIONARY
  5
1A
102
{ACAD_REACTORS
330
C
102
}
330
C
100
AcDbDictionary
  0
DICTIONARY
  5
43
102
{ACAD_REACTORS
330
C
102
}
330
C
100
AcDbDictionary
  3
BYBLOCK
350
45
  3
BYLAYER
350
44
  3
GLOBAL
350
46
  0
DICTIONARY
  5
1C8
102
{ACAD_REACTORS
330
C
102
}
330
C
100
AcDbDictionary
  0
DICTIONARY
  5
17
102
{ACAD_REACTORS
330
C
102
}
330
C
100
AcDbDictionary
  3
STANDARD
350
18
  0
DICTIONARY
  5
19
102
{ACAD_REACTORS
330
C
102
}
330
C
100
AcDbDictionary
  0
DICTIONARY
  5
47
102
{ACAD_REACTORS
330
C
102
}
330
C
100
AcDbDictionary
  3
A0
350
48
  3
A1
350
49
  3
A2
350
4A
  3
A3
350
4B
  3
A4
350
4C
  3
A5
350
4D
  3
A6
350
4E
  3
A7
350
4F
  3
A8
350
50
  3
A9
350
51
  3
B0
350
52
  3
B1
350
53
  3
B2
350
54
  3
B3
350
55
  3
B4
350
56
  3
B5
350
57
  3
B6
350
58
  3
B7
350
59
  3
B8
350
5A
  3
B9
350
5B
  3
C0
350
5C
  3
C1
350
5D
  3
C2
350
5E
  3
C3
350
5F
  3
C4
350
60
  3
C5
350
61
  3
C6
350
62
  3
C7
350
63
  3
C8
350
64
  3
C9
350
65
  3
D0
350
66
  3
D1
350
67
  3
D2
350
68
  0
DICTIONARY
  5
2A
102
{ACAD_REACTORS
330
C
102
}
330
C
100
AcDbDictionary
  3
2DWIREFRAME
350
2F
  3
BASIC
350
32
  3
BRIGHTEN
350
36
  3
COLORCHANGE
350
3A
  3
CONCEPTUAL
350
34
  3
DIM
350
35
  3
EDGECOLOROFF
350
3D
  3
FACEPATTERN
350
39
  3
FLAT
350
2B
  3
FLATWITHEDGES
350
2C
  3
GOURAUD
350
2D
  3
GOURAUDWITHEDGES
350
2E
  3
HIDDEN
350
31
  3
JITTEROFF
350
3B
  3
LINEPATTERN
350
38
  3
OVERHANGOFF
350
3C
  3
REALISTIC
350
33
  3
SHADED
350
42
  3
SHADED_WITH_EDGES
350
41
  3
SHADES_OF_GRAY
350
3E
  3
SKETCHY
350
3F
  3
THICKEN
350
37
  3
WIREFRAME
350
30
  3
X-RAY
350
40
  0
DICTIONARY
  5
1A6
102
{ACAD_REACTORS
330
C
102
}
330
C
100
AcDbDictionary
  3
CEPSNTYPE
350
1AF
  3
DIMSTYLEDATA
350
1C5
  3
FINGERPRINTGUID
350
1B0
  3
HYPERLINKBASE
350
1A9
  3
INSUNITS
350
1AE
  3
LAYOUTDICT
350
1AB
  3
LWETCUNION
350
1AD
  3
PLOTSETDICT
350
1AC
  3
PSVPSCALE
350
1B2
  3
PUCSBASE
350
1B5
  3
PUCSORGBACK
350
1BB
  3
PUCSORGBOTTOM
350
1B7
  3
PUCSORGFRONT
350
1BA
  3
PUCSORGLEFT
350
1B8
  3
PUCSORGRIGHT
350
1B9
  3
PUCSORGTOP
350
1B6
  3
PUCSORTHOREF
350
1B3
  3
PUCSORTHOVIEW
350
1B4
  3
STYLESHEET
350
1AA
  3
TSTACKALIGN
350
1A7
  3
TSTACKSIZE
350
1A8
  3
UCSBASE
350
1BE
  3
UCSORGBACK
350
1C4
  3
UCSORGBOTTOM
350
1C0
  3
UCSORGFRONT
350
1C3
  3
UCSORGLEFT
350
1C1
  3
UCSORGRIGHT
350
1C2
  3
UCSORGTOP
350
1BF
  3
UCSORTHOREF
350
1BC
  3
UCSORTHOVIEW
350
1BD
  3
VERSIONGUID
350
1B1
  0
DICTIONARY
  5
1C6
102
{ACAD_REACTORS
330
C
102
}
330
C
100
AcDbDictionary
  3
CANNOSCALE
350
1CF
  3
DIMASSOC
350
1CB
  3
HIDETEXT
350
1CC
  3
MSLTSCALE
350
1D0
  0
XRECORD
  5
1CE
102
{ACAD_REACTORS
330
1CD
102
}
330
1CD
100
AcDbXrecord
102
VTR_0.000_0.000_1.000_1.000_GRIDDISPLAY
 70
     3
102
VTR_0.000_0.000_1.000_1.000_GRIDMAJOR
 70
     5
102
VTR_0.000_0.000_1.000_1.000_DEFAULTLIGHTING
280
     1
102
VTR_0.000_0.000_1.000_1.000_DEFAULTLIGHTINGTYPE
 70
     1
102
VTR_0.000_0.000_1.000_1.000_BRIGHTNESS
141
0.0
102
VTR_0.000_0.000_1.000_1.000_CONTRAST
142
0.0
  0
MATERIAL
  5
45
102
{ACAD_REACTORS
330
43
102
}
102
{ACAD_XDICTIONARY
360
1D3
102
}
330
43
100
AcDbMaterial
  1
BYBLOCK
  0
MATERIAL
  5
44
102
{ACAD_REACTORS
330
43
102
}
102
{ACAD_XDICTIONARY
360
1D1
102
}
330
43
100
AcDbMaterial
  1
BYLAYER
  0
MATERIAL
  5
46
102
{ACAD_REACTORS
330
43
102
}
102
{ACAD_XDICTIONARY
360
1D5
102
}
330
43
100
AcDbMaterial
  1
GLOBAL
  0
MLINESTYLE
  5
18
102
{ACAD_REACTORS
330
17
102
}
330
17
100
AcDbMlineStyle
  2
Standard
 70
     0
  3

 62
   256
 51
90.0
 52
90.0
 71
     2
 49
0.5
 62
   256
  6
BYLAYER
 49
-0.5
 62
   256
  6
BYLAYER
  0
ACAD_PROXY_OBJECT
  5
48
102
{ACAD_REACTORS
330
47
102
}
330
47
100
AcDbProxyObject
 90
      499
 91
      503
 93
       41
310
903313A31580
  0
ACAD_PROXY_OBJECT
  5
49
102
{ACAD_REACTORS
330
47
102
}
330
47
100
AcDbProxyObject
 90
      499
 91
      503
 93
      105
310
903313A324000000000000004000
  0
ACAD_PROXY_OBJECT
  5
4A
102
{ACAD_REACTORS
330
47
102
}
330
47
100
AcDbProxyObject
 90
      499
 91
      503
 93
      105
310
903313A344000000000000104000
  0
ACAD_PROXY_OBJECT
  5
4B
102
{ACAD_REACTORS
330
47
102
}
330
47
100
AcDbProxyObject
 90
      499
 91
      503
 93
      105
310
903313A354000000000000144000
  0
ACAD_PROXY_OBJECT
  5
4C
102
{ACAD_REACTORS
330
47
102
}
330
47
100
AcDbProxyObject
 90
      499
 91
      503
 93
      105
310
903313A384000000000000204000
  0
ACAD_PROXY_OBJECT
  5
4D
102
{ACAD_REACTORS
330
47
102
}
330
47
100
AcDbProxyObject
 90
      499
 91
      503
 93
      113
310
904313A31304000000000000244000
  0
ACAD_PROXY_OBJECT
  5
4E
102
{ACAD_REACTORS
330
47
102
}
330
47
100
AcDbProxyObject
 90
      499
 91
      503
 93
      113
310
904313A31364000000000000304000
  0
ACAD_PROXY_OBJECT
  5
4F
102
{ACAD_REACTORS
330
47
102
}
330
47
100
AcDbProxyObject
 90
      499
 91
      503
 93
      113
310
904313A32304000000000000344000
  0
ACAD_PROXY_OBJECT
  5
50
102
{ACAD_REACTORS
330
47
102
}
330
47
100
AcDbProxyObject
 90
      499
 91
      503
 93
      113
310
904313A333040000000000003E4000
  0
ACAD_PROXY_OBJECT
  5
51
102
{ACAD_REACTORS
330
47
102
}
330
47
100
AcDbProxyObject
 90
      499
 91
      503
 93
      113
310
904313A34304000000000000444000
  0
ACAD_PROXY_OBJECT
  5
52
102
{ACAD_REACTORS
330
47
102
}
330
47
100
AcDbProxyObject
 90
      499
 91
      503
 93
      113
310
904313A35304000000000000494000
  0
ACAD_PROXY_OBJECT
  5
53
102
{ACAD_REACTORS
330
47
102
}
330
47
100
AcDbProxyObject
 90
      499
 91
      503
 93
      121
310
905313A3130304000000000000594000
  0
ACAD_PROXY_OBJECT
  5
54
102
{ACAD_REACTORS
330
47
102
}
330
47
100
AcDbProxyObject
 90
      499
 91
      503
 93
      105
310
903323A310000000000000010100
  0
ACAD_PROXY_OBJECT
  5
55
102
{ACAD_REACTORS
330
47
102
}
330
47
100
AcDbProxyObject
 90
      499
 91
      503
 93
      105
310
903343A310000000000000410100
  0
ACAD_PROXY_OBJECT
  5
56
102
{ACAD_REACTORS
330
47
102
}
330
47
100
AcDbProxyObject
 90
      499
 91
      503
 93
      105
310
903383A310000000000000810100
  0
ACAD_PROXY_OBJECT
  5
57
102
{ACAD_REACTORS
330
47
102
}
330
47
100
AcDbProxyObject
 90
      499
 91
      503
 93
      113
310
90431303A310000000000000910100
  0
ACAD_PROXY_OBJECT
  5
58
102
{ACAD_REACTORS
330
47
102
}
330
47
100
AcDbProxyObject
 90
      499
 91
      503
 93
      121
310
9053130303A310000000000001650100
  0
ACAD_PROXY_OBJECT
  5
59
102
{ACAD_REACTORS
330
47
102
}
330
47
100
AcDbProxyObject
 90
      499
 91
      503
 93
      257
310
90E312F31323822203D2031272D3022000000000000200FC000000000000284000
  0
ACAD_PROXY_OBJECT
  5
5A
102
{ACAD_REACTORS
330
47
102
}
330
47
100
AcDbProxyObject
 90
      499
 91
      503
 93
      249
310
90D312F363422203D2031272D3022000000000000240FC000000000000284000
  0
ACAD_PROXY_OBJECT
  5
5B
102
{ACAD_REACTORS
330
47
102
}
330
47
100
AcDbProxyObject
 90
      499
 91
      503
 93
      249
310
90D312F333222203D2031272D3022000000000000280FC000000000000284000
  0
ACAD_PROXY_OBJECT
  5
5C
102
{ACAD_REACTORS
330
47
102
}
330
47
100
AcDbProxyObject
 90
      499
 91
      503
 93
      249
310
90D312F313622203D2031272D30220000000000002C0FC000000000000284000
  0
ACAD_PROXY_OBJECT
  5
5D
102
{ACAD_REACTORS
330
47
102
}
330
47
100
AcDbProxyObject
 90
      499
 91
      503
 93
      249
310
90D332F333222203D2031272D30220000000000002E0FC000000000000284000
  0
ACAD_PROXY_OBJECT
  5
5E
102
{ACAD_REACTORS
330
47
102
}
330
47
100
AcDbProxyObject
 90
      499
 91
      503
 93
      241
310
90C312F3822203D2031272D3022000000000000300FC000000000000284000
  0
ACAD_PROXY_OBJECT
  5
5F
102
{ACAD_REACTORS
330
47
102
}
330
47
100
AcDbProxyObject
 90
      499
 91
      503
 93
      249
310
90D332F313622203D2031272D3022000000000000320FC000000000000284000
  0
ACAD_PROXY_OBJECT
  5
60
102
{ACAD_REACTORS
330
47
102
}
330
47
100
AcDbProxyObject
 90
      499
 91
      503
 93
      241
310
90C312F3422203D2031272D3022000000000000340FC000000000000284000
  0
ACAD_PROXY_OBJECT
  5
61
102
{ACAD_REACTORS
330
47
102
}
330
47
100
AcDbProxyObject
 90
      499
 91
      503
 93
      241
310
90C332F3822203D2031272D3022000000000000360FC000000000000284000
  0
ACAD_PROXY_OBJECT
  5
62
102
{ACAD_REACTORS
330
47
102
}
330
47
100
AcDbProxyObject
 90
      499
 91
      503
 93
      241
310
90C312F3222203D2031272D3022000000000000380FC000000000000284000
  0
ACAD_PROXY_OBJECT
  5
63
102
{ACAD_REACTORS
330
47
102
}
330
47
100
AcDbProxyObject
 90
      499
 91
      503
 93
      241
310
90C332F3422203D2031272D30220000000000003A0FC000000000000284000
  0
ACAD_PROXY_OBJECT
  5
64
102
{ACAD_REACTORS
330
47
102
}
330
47
100
AcDbProxyObject
 90
      499
 91
      503
 93
      161
310
90A3122203D2031272D30224000000000000284000
  0
ACAD_PROXY_OBJECT
  5
65
102
{ACAD_REACTORS
330
47
102
}
330
47
100
AcDbProxyObject
 90
      499
 91
      503
 93
      257
310
90E312D312F3222203D2031272D30220000000000003E0FC000000000000284000
  0
ACAD_PROXY_OBJECT
  5
66
102
{ACAD_REACTORS
330
47
102
}
330
47
100
AcDbProxyObject
 90
      499
 91
      503
 93
      225
310
90A3322203D2031272D302200000000000002100000000000000284000
  0
ACAD_PROXY_OBJECT
  5
67
102
{ACAD_REACTORS
330
47
102
}
330
47
100
AcDbProxyObject
 90
      499
 91
      503
 93
      225
310
90A3622203D2031272D302200000000000006100000000000000284000
  0
ACAD_PROXY_OBJECT
  5
68
102
{ACAD_REACTORS
330
47
102
}
330
47
100
AcDbProxyObject
 90
      499
 91
      503
 93
      249
310
90D31272D3022203D2031272D30220000000000000A100000000000000284000
  0
ACAD_PROXY_OBJECT
  5
2F
102
{ACAD_REACTORS
330
2A
102
}
330
2A
100
AcDbProxyObject
 90
      499
 91
      501
 93
      436
310
42CC9915DA5C99599C985B595049028333333333333E33F0000000000000F90107901411070040501600405405064090741402480A0340
1001
ACAD
1000
AcDbSavedByObjectVersion
1070
     0
  0
ACAD_PROXY_OBJECT
  5
32
102
{ACAD_REACTORS
330
2A
102
}
330
2A
100
AcDbProxyObject
 90
      499
 91
      501
 93
      388
310
4150985CDA58D07406404333333333333E33F0000000000000F90107A41107004050150841D405064090741402480A0350
1001
ACAD
1000
AcDbSavedByObjectVersion
1070
     0
  0
ACAD_PROXY_OBJECT
  5
36
102
{ACAD_REACTORS
330
2A
102
}
330
2A
100
AcDbProxyObject
 90
      499
 91
      501
 93
      428
310
42109C9A59DA1D195B90C409028333333333333E33F0000000000000F9010790141107004050150841D405064090741402480A029950
1001
ACAD
1000
AcDbSavedByObjectVersion
1070
     0
  0
ACAD_PROXY_OBJECT
  5
3A
102
{ACAD_REACTORS
330
2A
102
}
330
2A
100
AcDbProxyObject
 90
      499
 91
      501
 93
      452
310
42D0DBDB1BDC90DA185B99D95104090240C333333333333E33F0000000000000F90108901411070040501508421405064090741402480A0350
1001
ACAD
1000
AcDbSavedByObjectVersion
1070
     0
  0
ACAD_PROXY_OBJECT
  5
34
102
{ACAD_REACTORS
330
2A
102
}
330
2A
100
AcDbProxyObject
 90
      499
 91
      501
 93
      500
310
4290DBDB98D95C1D1D585B10940D028333333333333E33F0000000000000F90107902409070040501000000000018199010841D405064090740C02480A0340
1001
ACAD
1000
AcDbSavedByObjectVersion
1070
     0
  0
ACAD_PROXY_OBJECT
  5
35
102
{ACAD_REACTORS
330
2A
102
}
330
2A
100
AcDbProxyObject
 90
      499
 91
      501
 93
      412
310
40D11A5B50B409028333333333333E33F0000000000000F9010790141107004050150841D405064090741402480A02677FFFFFD0
1001
ACAD
1000
AcDbSavedByObjectVersion
1070
     0
  0
ACAD_PROXY_OBJECT
  5
3D
102
{ACAD_REACTORS
330
2A
102
}
330
2A
100
AcDbProxyObject
 90
      499
 91
      501
 93
      452
310
43115919D950DBDB1BDC93D999916409028333333333333E33F0000000000000F9010790141107004050150841D405064090741402480A0350
1001
ACAD
1000
AcDbSavedByObjectVersion
1070
     0
  0
ACAD_PROXY_OBJECT
  5
39
102
{ACAD_REACTORS
330
2A
102
}
330
2A
100
AcDbProxyObject
 90
      499
 91
      501
 93
      444
310
42D19858D95C185D1D195C9B90F409028333333333333E33F0000000000000F9010790141107004050150841D405064090741402480A0350
1001
ACAD
1000
AcDbSavedByObjectVersion
1070
     0
  0
ACAD_PROXY_OBJECT
  5
2B
102
{ACAD_REACTORS
330
2A
102
}
330
2A
100
AcDbProxyObject
 90
      499
 91
      501
 93
      380
310
41119B185D240901404333333333333E33F0000000000000F9010740A907004050150841D405064090741402480A1B50
1001
ACAD
1000
AcDbSavedByObjectVersion
1070
     0
  0
ACAD_PROXY_OBJECT
  5
2C
102
{ACAD_REACTORS
330
2A
102
}
330
2A
100
AcDbProxyObject
 90
      499
 91
      501
 93
      468
310
43519B185D15DA5D1A115919D95CD0140901404333333333333E33F0000000000000F90107409019070040501600405405064090741402480A1B50
1001
ACAD
1000
AcDbSavedByObjectVersion
1070
     0
  0
ACAD_PROXY_OBJECT
  5
2D
102
{ACAD_REACTORS
330
2A
102
}
330
2A
100
AcDbProxyObject
 90
      499
 91
      501
 93
      404
310
41D1DBDD5C985D5910240902404333333333333E33F0000000000000F9010740A9070040501641D405064090741402480A1B50
1001
ACAD
1000
AcDbSavedByObjectVersion
1070
     0
  0
ACAD_PROXY_OBJECT
  5
2E
102
{ACAD_REACTORS
330
2A
102
}
330
2A
100
AcDbProxyObject
 90
      499
 91
      501
 93
      492
310
4411DBDD5C985D5915DA5D1A115919D95CD0340902404333333333333E33F0000000000000F90107409019070040501600405405064090741402480A1B50
1001
ACAD
1000
AcDbSavedByObjectVersion
1070
     0
  0
ACAD_PROXY_OBJECT
  5
31
102
{ACAD_REACTORS
330
2A
102
}
330
2A
100
AcDbProxyObject
 90
      499
 91
      501
 93
      476
310
41921A5919195B90640502408333333333333E33F0000000000000F901079024090700405020000000000001110200405405064090740C02480A0340
1001
ACAD
1000
AcDbSavedByObjectVersion
1070
     0
  0
ACAD_PROXY_OBJECT
  5
3B
102
{ACAD_REACTORS
330
2A
102
}
330
2A
100
AcDbProxyObject
 90
      499
 91
      501
 93
      428
310
42529A5D1D195C93D999914409028333333333333E33F0000000000000F9010790141107004050150A41D405064090741402480A0350
1001
ACAD
1000
AcDbSavedByObjectVersion
1070
     0
  0
ACAD_PROXY_OBJECT
  5
38
102
{ACAD_REACTORS
330
2A
102
}
330
2A
100
AcDbProxyObject
 90
      499
 91
      501
 93
      444
310
42D31A5B995C185D1D195C9B90E409028333333333333E33F0000000000000F9010790141107004050750841D405064090741402483A0350
1001
ACAD
1000
AcDbSavedByObjectVersion
1070
     0
  0
ACAD_PROXY_OBJECT
  5
3C
102
{ACAD_REACTORS
330
2A
102
}
330
2A
100
AcDbProxyObject
 90
      499
 91
      501
 93
      444
310
42D3DD995C9A185B99D3D999915409028333333333333E33F0000000000000F9010790141107004050150941D405064090741402480A0350
1001
ACAD
1000
AcDbSavedByObjectVersion
1070
     0
  0
ACAD_PROXY_OBJECT
  5
33
102
{ACAD_REACTORS
330
2A
102
}
330
2A
100
AcDbProxyObject
 90
      499
 91
      501
 93
      428
310
425499585B1A5CDD1A58D08409038333333333333E33F0000000000000F9010740A907004050150800405405064090740C02480A1B40
1001
ACAD
1000
AcDbSavedByObjectVersion
1070
     0
  0
ACAD_PROXY_OBJECT
  5
42
102
{ACAD_REACTORS
330
2A
102
}
330
2A
100
AcDbProxyObject
 90
      499
 91
      501
 93
      420
310
4194DA1859195911B40902404333333333333E33F0000000000000F9010740A41107004050150800405405064090840C02480A0B40
1001
ACAD
1000
AcDbSavedByObjectVersion
1070
     0
  0
ACAD_PROXY_OBJECT
  5
41
102
{ACAD_REACTORS
330
2A
102
}
330
2A
100
AcDbProxyObject
 90
      499
 91
      501
 93
      516
310
4454DA18591959081DDA5D1A08195919D95CD1A40902404333333333333E33F0000000000000F901074090142907004050250800405405064090740C02480A0B40
1001
ACAD
1000
AcDbSavedByObjectVersion
1070
     0
  0
ACAD_PROXY_OBJECT
  5
3E
102
{ACAD_REACTORS
330
2A
102
}
330
2A
100
AcDbProxyObject
 90
      499
 91
      501
 93
      532
310
4394DA1859195CC81BD98811DC985E5174090240C333333333333E33F0000000000000F901079024090741D01000000000000111010841D405064090740C02480A0340
1001
ACAD
1000
AcDbSavedByObjectVersion
1070
     0
  0
ACAD_PROXY_OBJECT
  5
3F
102
{ACAD_REACTORS
330
2A
102
}
330
2A
100
AcDbProxyObject
 90
      499
 91
      501
 93
      476
310
41D4DAD95D18DA1E51840502408333333333333E33F0000000000000F901079024090741D01000000000000111010B41D405064090741802480A0340
1001
ACAD
1000
AcDbSavedByObjectVersion
1070
     0
  0
ACAD_PROXY_OBJECT
  5
37
102
{ACAD_REACTORS
330
2A
102
}
330
2A
100
AcDbProxyObject
 90
      499
 91
      501
 93
      412
310
41D51A1A58DAD95B90D409028333333333333E33F0000000000000F9010790141107004050150C41D405064090741402480A0350
1001
ACAD
1000
AcDbSavedByObjectVersion
1070
     0
  0
ACAD_PROXY_OBJECT
  5
30
102
{ACAD_REACTORS
330
2A
102
}
330
2A
100
AcDbProxyObject
 90
      499
 91
      501
 93
      420
310
4255DA5C99599C985B595059028333333333333E33F0000000000000F90107901411070040501600405405064090740C02480A0340
1001
ACAD
1000
AcDbSavedByObjectVersion
1070
     0
  0
ACAD_PROXY_OBJECT
  5
40
102
{ACAD_REACTORS
330
2A
102
}
330
2A
100
AcDbProxyObject
 90
      499
 91
      501
 93
      404
310
41560B54985E51940902404000000000000E03F0000000000000F9010740501907004050150841D405064090740C02480A1B40
1001
ACAD
1000
AcDbSavedByObjectVersion
1070
     0
  0
XRECORD
  5
1AF
102
{ACAD_REACTORS
330
1A6
102
}
330
1A6
100
AcDbXrecord
 90
        0
  0
XRECORD
  5
1C5
102
{ACAD_REACTORS
330
1A6
102
}
330
1A6
100
AcDbXrecord
1000
DSTYLE
1002
{
1070
   171
 70
     2
1070
   143
 40
25.4
1070
   274
 70
     2
1070
    41
 40
0.18
1070
   141
 40
0.09
1070
   271
 70
     4
1070
    43
 40
0.38
1070
   278
 70
    46
1070
    44
 40
0.18
1070
    42
 40
0.0625
1070
   147
 40
0.09
1070
    77
 70
     0
1070
   272
 70
     4
1070
    73
 70
     1
1070
   172
 70
     0
1070
    74
 70
     1
1070
   283
 70
     1
1070
   340
340
11
1070
   140
 40
0.18
1070
   284
 70
     0
1070
    78
 70
     0
1002
}
  0
XRECORD
  5
1B0
102
{ACAD_REACTORS
330
1A6
102
}
330
1A6
100
AcDbXrecord
  1
{92B6DCF6-C231-4776-91E6-45E84E56917C}
  0
XRECORD
  5
1A9
102
{ACAD_REACTORS
330
1A6
102
}
330
1A6
100
AcDbXrecord
  1

  0
XRECORD
  5
1AE
102
{ACAD_REACTORS
330
1A6
102
}
330
1A6
100
AcDbXrecord
 90
        4
  0
XRECORD
  5
1AB
102
{ACAD_REACTORS
330
1A6
102
}
330
1A6
100
AcDbXrecord
340
1A
  0
XRECORD
  5
1AD
102
{ACAD_REACTORS
330
1A6
102
}
330
1A6
100
AcDbXrecord
 90
    10781
  0
XRECORD
  5
1AC
102
{ACAD_REACTORS
330
1A6
102
}
330
1A6
100
AcDbXrecord
340
19
  0
XRECORD
  5
1B2
102
{ACAD_REACTORS
330
1A6
102
}
330
1A6
100
AcDbXrecord
 40
0.0
  0
XRECORD
  5
1B5
102
{ACAD_REACTORS
330
1A6
102
}
330
1A6
100
AcDbXrecord
340
0
  0
XRECORD
  5
1BB
102
{ACAD_REACTORS
330
1A6
102
}
330
1A6
100
AcDbXrecord
 10
0.0
 20
0.0
 30
0.0
  0
XRECORD
  5
1B7
102
{ACAD_REACTORS
330
1A6
102
}
330
1A6
100
AcDbXrecord
 10
0.0
 20
0.0
 30
0.0
  0
XRECORD
  5
1BA
102
{ACAD_REACTORS
330
1A6
102
}
330
1A6
100
AcDbXrecord
 10
0.0
 20
0.0
 30
0.0
  0
XRECORD
  5
1B8
102
{ACAD_REACTORS
330
1A6
102
}
330
1A6
100
AcDbXrecord
 10
0.0
 20
0.0
 30
0.0
  0
XRECORD
  5
1B9
102
{ACAD_REACTORS
330
1A6
102
}
330
1A6
100
AcDbXrecord
 10
0.0
 20
0.0
 30
0.0
  0
XRECORD
  5
1B6
102
{ACAD_REACTORS
330
1A6
102
}
330
1A6
100
AcDbXrecord
 10
0.0
 20
0.0
 30
0.0
  0
XRECORD
  5
1B3
102
{ACAD_REACTORS
330
1A6
102
}
330
1A6
100
AcDbXrecord
340
0
  0
XRECORD
  5
1B4
102
{ACAD_REACTORS
330
1A6
102
}
330
1A6
100
AcDbXrecord
 70
     0
  0
XRECORD
  5
1AA
102
{ACAD_REACTORS
330
1A6
102
}
330
1A6
100
AcDbXrecord
  1

  0
XRECORD
  5
1A7
102
{ACAD_REACTORS
330
1A6
102
}
330
1A6
100
AcDbXrecord
 90
        1
  0
XRECORD
  5
1A8
102
{ACAD_REACTORS
330
1A6
102
}
330
1A6
100
AcDbXrecord
 90
       70
  0
XRECORD
  5
1BE
102
{ACAD_REACTORS
330
1A6
102
}
330
1A6
100
AcDbXrecord
340
0
  0
XRECORD
  5
1C4
102
{ACAD_REACTORS
330
1A6
102
}
330
1A6
100
AcDbXrecord
 10
0.0
 20
0.0
 30
0.0
  0
XRECORD
  5
1C0
102
{ACAD_REACTORS
330
1A6
102
}
330
1A6
100
AcDbXrecord
 10
0.0
 20
0.0
 30
0.0
  0
XRECORD
  5
1C3
102
{ACAD_REACTORS
330
1A6
102
}
330
1A6
100
AcDbXrecord
 10
0.0
 20
0.0
 30
0.0
  0
XRECORD
  5
1C1
102
{ACAD_REACTORS
330
1A6
102
}
330
1A6
100
AcDbXrecord
 10
0.0
 20
0.0
 30
0.0
  0
XRECORD
  5
1C2
102
{ACAD_REACTORS
330
1A6
102
}
330
1A6
100
AcDbXrecord
 10
0.0
 20
0.0
 30
0.0
  0
XRECORD
  5
1BF
102
{ACAD_REACTORS
330
1A6
102
}
330
1A6
100
AcDbXrecord
 10
0.0
 20
0.0
 30
0.0
  0
XRECORD
  5
1BC
102
{ACAD_REACTORS
330
1A6
102
}
330
1A6
100
AcDbXrecord
340
0
  0
XRECORD
  5
1BD
102
{ACAD_REACTORS
330
1A6
102
}
330
1A6
100
AcDbXrecord
 70
     0
  0
XRECORD
  5
1B1
102
{ACAD_REACTORS
330
1A6
102
}
330
1A6
100
AcDbXrecord
  1
{FAEB1C32-E019-11D5-929B-00C0DF256EC4}
  0
DICTIONARYVAR
  5
1CF
102
{ACAD_REACTORS
330
1C6
102
}
330
1C6
100
DictionaryVariables
280
     0
  1
1:1
  0
DICTIONARYVAR
  5
1CB
102
{ACAD_REACTORS
330
1C6
102
}
330
1C6
100
DictionaryVariables
280
     0
  1
2
  0
DICTIONARYVAR
  5
1CC
102
{ACAD_REACTORS
330
1C6
102
}
330
1C6
100
DictionaryVariables
280
     0
  1
1
  0
DICTIONARYVAR
  5
1D0
102
{ACAD_REACTORS
330
1C6
102
}
330
1C6
100
DictionaryVariables
280
     0
  1
1
  0
DICTIONARY
  5
1D3
330
45
100
AcDbDictionary
280
     1
  3
ACAD_XREC_ROUNDTRIP
360
1D4
  0
DICTIONARY
  5
1D1
330
44
100
AcDbDictionary
280
     1
  3
ACAD_XREC_ROUNDTRIP
360
1D2
  0
DICTIONARY
  5
1D5
330
46
100
AcDbDictionary
280
     1
  3
ACAD_XREC_ROUNDTRIP
360
1D6
  0
XRECORD
  5
1D4
102
{ACAD_REACTORS
330
1D3
102
}
330
1D3
100
AcDbXrecord
102
MATERIAL
148
0.0
149
0.0
149
0.0
 93
        0
 94
      127
282
     0
 72
     1
 77
     1
171
     1
175
     1
179
     1
273
     0
  0
XRECORD
  5
1D2
102
{ACAD_REACTORS
330
1D1
102
}
330
1D1
100
AcDbXrecord
102
MATERIAL
148
0.0
149
0.0
149
0.0
 93
        0
 94
      127
282
     0
 72
     1
 77
     1
171
     1
175
     1
179
     1
273
     0
  0
XRECORD
  5
1D6
102
{ACAD_REACTORS
330
1D5
102
}
330
1D5
100
AcDbXrecord
102
MATERIAL
148
0.0
149
0.0
149
0.0
 93
        0
 94
      127
282
     0
 72
     1
 77
     1
171
     1
175
     1
179
     1
273
     0
  0
ENDSEC
  0
EOF
